<svg width="40" height="40" viewBox="0 0 40 40" fill="none" xmlns="http://www.w3.org/2000/svg">
<path d="M14 32.65C13 32.65 12.1333 32.3 11.4 31.6C10.7 30.8667 10.35 30 10.35 29V3.65C10.35 2.65 10.7 1.8 11.4 1.1C12.1333 0.366666 13 0 14 0H33.35C34.35 0 35.2 0.366666 35.9 1.1C36.6333 1.8 37 2.65 37 3.65V29C37 30 36.6333 30.8667 35.9 31.6C35.2 32.3 34.35 32.65 33.35 32.65H14ZM6.65 40C5.65 40 4.78333 39.65 4.05 38.95C3.35 38.2167 3 37.35 3 36.35V7.35H6.65V36.35H29.65V40H6.65Z" fill="white"/>
</svg>
