<svg width="40" height="40" viewBox="0 0 40 40" fill="none" xmlns="http://www.w3.org/2000/svg">
<path d="M20 40C17.2333 40 14.6333 39.4833 12.2 38.45C9.76667 37.3833 7.65 35.95 5.85 34.15C4.05 32.35 2.61667 30.2333 1.55 27.8C0.516667 25.3667 0 22.7667 0 20C0 17.2333 0.516667 14.6333 1.55 12.2C2.61667 9.76666 4.05 7.65 5.85 5.85C7.65 4.05 9.76667 2.63333 12.2 1.6C14.6333 0.533333 17.2333 0 20 0C22.7667 0 25.3667 0.533333 27.8 1.6C30.2333 2.63333 32.35 4.05 34.15 5.85C35.95 7.65 37.3667 9.76666 38.4 12.2C39.4667 14.6333 40 17.2333 40 20C40 22.7667 39.4667 25.3667 38.4 27.8C37.3667 30.2333 35.95 32.35 34.15 34.15C32.35 35.95 30.2333 37.3833 27.8 38.45C25.3667 39.4833 22.7667 40 20 40ZM14.1 30.05H22.25C23.25 30.05 24.1 29.7 24.8 29C25.5333 28.2667 25.9 27.4 25.9 26.4V21.8C25.9 20.8 25.5333 19.95 24.8 19.25C24.1 18.5167 23.25 18.15 22.25 18.15H17.75V13.6H25.9V9.95H14.1V21.8H22.25V26.4H14.1V30.05Z" fill="currentColor"/>
</svg>
