<svg width="40" height="40" viewBox="0 0 40 40" fill="none" xmlns="http://www.w3.org/2000/svg">
<path d="M18.35 20L24.65 26.25L22.05 28.9L13.2 20L22.05 11.1L24.65 13.75L18.35 20ZM20 40C22.7667 40 25.3667 39.4833 27.8 38.45C30.2333 37.3833 32.35 35.95 34.15 34.15C35.95 32.35 37.3833 30.2333 38.45 27.8C39.4833 25.3667 40 22.7667 40 20C40 17.2333 39.4833 14.6333 38.45 12.2C37.3833 9.76667 35.95 7.65 34.15 5.85C32.35 4.05 30.2333 2.63333 27.8 1.6C25.3667 0.533333 22.7667 0 20 0C17.2333 0 14.6333 0.533333 12.2 1.6C9.76667 2.63333 7.65 4.05 5.85 5.85C4.05 7.65 2.63333 9.76667 1.6 12.2C0.533333 14.6333 0 17.2333 0 20C0 22.7667 0.533333 25.3667 1.6 27.8C2.63333 30.2333 4.05 32.35 5.85 34.15C7.65 35.95 9.76667 37.3833 12.2 38.45C14.6333 39.4833 17.2333 40 20 40Z" fill="white"/>
<path d="M18.35 20L24.65 26.25L22.05 28.9L13.2 20L22.05 11.1L24.65 13.75L18.35 20Z" fill="#00B59C"/>
</svg>
