<svg width="19" height="20" viewBox="0 0 19 20" fill="none" xmlns="http://www.w3.org/2000/svg">
<g clip-path="url(#clip0_3717_22414)">
<path fill-rule="evenodd" clip-rule="evenodd" d="M10.003 0.416626C10.0817 0.416682 10.158 0.416754 10.2319 0.416842L10.8382 0.418095C11.755 0.421 12.2311 0.428218 12.6744 0.443148L12.9397 0.453059C13.0885 0.459109 13.2427 0.466092 13.4174 0.474134C14.4286 0.520661 15.1192 0.682686 15.7235 0.919619C16.3483 1.1645 16.8781 1.49221 17.4063 2.025C17.9345 2.55783 18.2593 3.0923 18.5021 3.72252C18.7369 4.33213 18.8976 5.02881 18.9437 6.0489C18.9835 6.93012 18.9972 7.29422 19.0002 9.04542V10.9552C18.9972 12.7064 18.9835 13.0705 18.9437 13.9517C18.8976 14.9718 18.7369 15.6685 18.5021 16.2781C18.2593 16.9083 17.9345 17.4428 17.4063 17.9756C16.8781 18.5084 16.3483 18.8361 15.7235 19.081C15.1192 19.3179 14.4286 19.48 13.4174 19.5265C12.5438 19.5667 12.1829 19.5804 10.447 19.5835H8.55376C6.81779 19.5804 6.45686 19.5667 5.5833 19.5265C4.57208 19.48 3.88145 19.3179 3.27715 19.081C2.65241 18.8361 2.12259 18.5084 1.59439 17.9756C1.06623 17.4428 0.741374 16.9083 0.498619 16.2781C0.263747 15.6685 0.10313 14.9718 0.0570079 13.9517C0.0490363 13.7755 0.042114 13.6199 0.0361161 13.4698L0.0262914 13.2022C0.011491 12.7551 0.00433635 12.2747 0.00145618 11.3498L0.000214043 10.7383C0.000127027 10.6637 5.60126e-05 10.5867 0 10.5073V9.49332C5.60126e-05 9.41391 0.000127027 9.33696 0.000214043 9.26235L0.00145618 8.65079C0.00433635 7.72592 0.011491 7.24557 0.0262914 6.79841L0.0326273 6.62035C0.039387 6.4421 0.0474419 6.2604 0.0570079 6.0489C0.10313 5.02881 0.263747 4.33213 0.498619 3.72252C0.741374 3.0923 1.06623 2.55783 1.59439 2.025C2.12259 1.49221 2.65241 1.1645 3.27715 0.919619C3.88145 0.682686 4.57208 0.520661 5.5833 0.474134C5.79295 0.464484 5.97308 0.456358 6.14978 0.44954L6.32629 0.443148C6.76956 0.428218 7.24574 0.421 8.16256 0.418095L8.7688 0.416842C8.84276 0.416754 8.91904 0.416682 8.99777 0.416626L10.003 0.416626ZM9.75493 2.14331H9.2458C9.16352 2.14334 9.08379 2.14337 9.00646 2.14343L8.5706 2.1439C6.86737 2.14667 6.52494 2.15941 5.66133 2.19916C4.73503 2.24177 4.23199 2.3979 3.89722 2.52915C3.45376 2.70301 3.13728 2.91068 2.80484 3.24607C2.47237 3.58142 2.2665 3.90068 2.09415 4.34803C1.96405 4.68574 1.80927 5.1932 1.76704 6.12761C1.72763 6.9988 1.715 7.34424 1.71226 9.06241L1.71178 9.5021C1.71168 9.65809 1.71164 9.82385 1.71164 10.0003L1.71167 10.2571C1.7117 10.3401 1.71173 10.4206 1.71178 10.4986L1.71226 10.9382C1.715 12.6564 1.72763 13.0018 1.76704 13.873C1.80927 14.8074 1.96405 15.3149 2.09415 15.6526C2.2665 16.0999 2.47241 16.4192 2.80484 16.7545C3.13728 17.0899 3.45376 17.2976 3.89722 17.4715C4.23199 17.6027 4.73503 17.7589 5.66133 17.8015C6.55938 17.8428 6.89376 17.8549 8.78159 17.857H10.2191C11.5987 17.8555 12.1487 17.8486 12.6953 17.8289L12.8688 17.8222C13.0148 17.8163 13.1667 17.8094 13.3394 17.8015C14.2657 17.7589 14.7687 17.6027 15.1035 17.4715C15.5469 17.2976 15.8634 17.0899 16.1959 16.7545C16.5283 16.4192 16.7342 16.0999 16.9065 15.6526C17.0366 15.3149 17.1914 14.8074 17.2337 13.873C17.2415 13.6988 17.2484 13.5456 17.2542 13.3982L17.2608 13.2232C17.2804 12.6717 17.2872 12.1169 17.2887 10.7254V9.2753C17.2867 7.37103 17.2746 7.03365 17.2337 6.12761C17.1914 5.1932 17.0366 4.68574 16.9065 4.34803C16.7342 3.90068 16.5283 3.58142 16.1959 3.24607C15.8634 2.91068 15.5469 2.70301 15.1035 2.52915C14.7687 2.3979 14.2657 2.24177 13.3394 2.19916C12.4758 2.15941 12.1333 2.14667 10.4301 2.1439L9.99426 2.14343C9.83962 2.14332 9.67531 2.14328 9.50037 2.14328L9.75493 2.14331Z" fill="white"/>
<path fill-rule="evenodd" clip-rule="evenodd" d="M9.50036 5.07892C12.1948 5.07892 14.379 7.2823 14.379 10.0004C14.379 12.7184 12.1948 14.9218 9.50036 14.9218C6.80593 14.9218 4.6217 12.7184 4.6217 10.0004C4.6217 7.2823 6.80593 5.07892 9.50036 5.07892ZM9.50036 6.80574C7.75134 6.80574 6.33351 8.23601 6.33351 10.0004C6.33351 11.7647 7.75134 13.195 9.50036 13.195C11.2493 13.195 12.6672 11.7647 12.6672 10.0004C12.6672 8.23601 11.2493 6.80574 9.50036 6.80574Z" fill="white"/>
<path d="M14.5721 6.03328C15.2017 6.03328 15.7121 5.5184 15.7121 4.88328C15.7121 4.24815 15.2017 3.73328 14.5721 3.73328C13.9425 3.73328 13.4321 4.24815 13.4321 4.88328C13.4321 5.5184 13.9425 6.03328 14.5721 6.03328Z" fill="white"/>
</g>
<defs>
<clipPath id="clip0_3717_22414">
<rect width="19" height="20" fill="white"/>
</clipPath>
</defs>
</svg>
