<svg width="40" height="40" viewBox="0 0 40 40" fill="none" xmlns="http://www.w3.org/2000/svg">
<path d="M7.5 30.55C9.33333 29.1833 11.2833 28.1333 13.35 27.4C15.45 26.6333 17.6667 26.25 20 26.25C22.3333 26.25 24.5333 26.6333 26.6 27.4C28.7 28.1333 30.6667 29.1833 32.5 30.55C33.7667 29.05 34.7167 27.4167 35.35 25.65C36.0167 23.8833 36.35 22 36.35 20C36.35 15.4333 34.7667 11.5667 31.6 8.4C28.4333 5.23333 24.5667 3.65 20 3.65C15.4333 3.65 11.5667 5.23333 8.4 8.4C5.23333 11.5667 3.65 15.4333 3.65 20C3.65 22 3.96667 23.8833 4.6 25.65C5.26667 27.4167 6.23333 29.05 7.5 30.55ZM20 21.85C18.0333 21.85 16.3833 21.1833 15.05 19.85C13.7167 18.4833 13.05 16.8333 13.05 14.9C13.05 12.9333 13.7167 11.2833 15.05 9.95C16.3833 8.61667 18.0333 7.95 20 7.95C21.9667 7.95 23.6167 8.61667 24.95 9.95C26.2833 11.2833 26.95 12.9333 26.95 14.9C26.95 16.8333 26.2833 18.4833 24.95 19.85C23.6167 21.1833 21.9667 21.85 20 21.85ZM20 40C17.2333 40 14.6333 39.4833 12.2 38.45C9.76667 37.3833 7.65 35.95 5.85 34.15C4.05 32.35 2.61667 30.2333 1.55 27.8C0.516667 25.3667 0 22.7667 0 20C0 17.2333 0.516667 14.6333 1.55 12.2C2.61667 9.76667 4.05 7.65 5.85 5.85C7.65 4.05 9.76667 2.63333 12.2 1.6C14.6333 0.533333 17.2333 0 20 0C22.7667 0 25.3667 0.533333 27.8 1.6C30.2333 2.63333 32.35 4.05 34.15 5.85C35.95 7.65 37.3667 9.76667 38.4 12.2C39.4667 14.6333 40 17.2333 40 20C40 22.7667 39.4667 25.3667 38.4 27.8C37.3667 30.2333 35.95 32.35 34.15 34.15C32.35 35.95 30.2333 37.3833 27.8 38.45C25.3667 39.4833 22.7667 40 20 40ZM20 36.35C21.8 36.35 23.5 36.0833 25.1 35.55C26.7333 35.0167 28.2667 34.2167 29.7 33.15C28.2667 32.0833 26.7333 31.2833 25.1 30.75C23.4667 30.1833 21.7667 29.9 20 29.9C18.2333 29.9 16.5333 30.1833 14.9 30.75C13.2667 31.2833 11.7333 32.0833 10.3 33.15C11.7333 34.2167 13.25 35.0167 14.85 35.55C16.4833 36.0833 18.2 36.35 20 36.35ZM20 18.15C20.9667 18.15 21.75 17.85 22.35 17.25C22.9833 16.6167 23.3 15.8333 23.3 14.9C23.3 13.9333 22.9833 13.15 22.35 12.55C21.75 11.9167 20.9667 11.6 20 11.6C19.0333 11.6 18.2333 11.9167 17.6 12.55C17 13.15 16.7 13.9333 16.7 14.9C16.7 15.8333 17 16.6167 17.6 17.25C18.2333 17.85 19.0333 18.15 20 18.15Z" fill="white"/>
</svg>
