<svg width="40" height="40" viewBox="0 0 40 40" fill="none" xmlns="http://www.w3.org/2000/svg">
<path d="M11.8333 30.6667C10.7222 30.6667 9.77776 30.2778 8.99998 29.5C8.2222 28.7222 7.83331 27.7778 7.83331 26.6667H5.33331V11.7667C5.33331 11.1 5.56665 10.5333 6.03331 10.0667C6.5222 9.57777 7.09998 9.33333 7.76665 9.33333H26.6666V14.7333H30.5L34.6666 20.3V26.6667H32.1C32.1 27.7778 31.7111 28.7222 30.9333 29.5C30.1555 30.2778 29.2222 30.6667 28.1333 30.6667C27.0222 30.6667 26.0778 30.2778 25.3 29.5C24.5222 28.7222 24.1333 27.7778 24.1333 26.6667H15.8C15.8 27.7778 15.4111 28.7222 14.6333 29.5C13.8555 30.2778 12.9222 30.6667 11.8333 30.6667ZM11.8333 28.2C12.2555 28.2 12.6111 28.0556 12.9 27.7667C13.2111 27.4778 13.3666 27.1111 13.3666 26.6667C13.3666 26.2444 13.2111 25.8889 12.9 25.6C12.6111 25.2889 12.2555 25.1333 11.8333 25.1333C11.3889 25.1333 11.0222 25.2889 10.7333 25.6C10.4444 25.8889 10.3 26.2444 10.3 26.6667C10.3 27.1111 10.4444 27.4778 10.7333 27.7667C11.0222 28.0556 11.3889 28.2 11.8333 28.2ZM7.76665 24.2333H8.73331C9.11109 23.7667 9.55554 23.4 10.0666 23.1333C10.6 22.8444 11.1778 22.7 11.8 22.7C12.4444 22.7 13.0222 22.8444 13.5333 23.1333C14.0666 23.4 14.5222 23.7667 14.9 24.2333H24.2V11.7667H7.76665V24.2333ZM28.1333 28.2C28.5555 28.2 28.9111 28.0556 29.2 27.7667C29.5111 27.4778 29.6666 27.1111 29.6666 26.6667C29.6666 26.2444 29.5111 25.8889 29.2 25.6C28.9111 25.2889 28.5555 25.1333 28.1333 25.1333C27.6889 25.1333 27.3222 25.2889 27.0333 25.6C26.7444 25.8889 26.6 26.2444 26.6 26.6667C26.6 27.1111 26.7444 27.4778 27.0333 27.7667C27.3222 28.0556 27.6889 28.2 28.1333 28.2ZM26.6666 21.5H32.5L29.2666 17.2H26.6666V21.5Z" fill="white"/>
</svg>
