<svg width="40" height="40" viewBox="0 0 40 40" fill="none" xmlns="http://www.w3.org/2000/svg">
<path d="M4.05556 35.9444V40C2.94444 40 1.98148 39.6111 1.16667 38.8333C0.388889 38.0185 0 37.0556 0 35.9444H4.05556ZM0 31V26.9444H4.05556V31H0ZM0 22.0556V17.9444H4.05556V22.0556H0ZM0 13.0556V9H4.05556V13.0556H0ZM4.05556 4.05556H0C0 2.94445 0.388889 2 1.16667 1.22222C1.98148 0.407407 2.94444 0 4.05556 0V4.05556ZM9 40V35.9444H13.0556V40H9ZM9 4.05556V0H13.0556V4.05556H9ZM17.9444 40V35.9444H22.0556V40H17.9444ZM17.9444 4.05556V0H22.0556V4.05556H17.9444ZM26.9444 40V35.9444H31V40H26.9444ZM26.9444 4.05556V0H31V4.05556H26.9444ZM35.9444 35.9444H40C40 37.0556 39.5926 38.0185 38.7778 38.8333C38 39.6111 37.0556 40 35.9444 40V35.9444ZM35.9444 31V26.9444H40V31H35.9444ZM35.9444 22.0556V17.9444H40V22.0556H35.9444ZM35.9444 13.0556V9H40V13.0556H35.9444ZM35.9444 4.05556V0C37.0556 0 38 0.407407 38.7778 1.22222C39.5926 2 40 2.94445 40 4.05556H35.9444Z" fill="white"/>
</svg>
