<svg width="40" height="40" viewBox="0 0 40 40" fill="none" xmlns="http://www.w3.org/2000/svg">
<path d="M38.9474 24.4737L24.4737 38.9474C24.1228 39.2982 23.7193 39.5614 23.2632 39.7368C22.807 39.9123 22.3684 40 21.9474 40C21.4912 40 21.0351 39.9123 20.5789 39.7368C20.1579 39.5614 19.7719 39.2982 19.4211 38.9474L1.05263 20.5789C0.701754 20.2632 0.438596 19.8947 0.263158 19.4737C0.0877193 19.0175 0 18.5614 0 18.1053V3.57895C0 2.59649 0.350877 1.75439 1.05263 1.05263C1.75439 0.350877 2.59649 0 3.57895 0H18.1053C18.5614 0 19.0175 0.105263 19.4737 0.315788C19.9298 0.491228 20.3158 0.736842 20.6316 1.05263L38.9474 19.3684C39.2982 19.7544 39.5614 20.1754 39.7368 20.6316C39.9123 21.0526 40 21.4912 40 21.9474C40 22.4035 39.9123 22.8596 39.7368 23.3158C39.5614 23.7368 39.2982 24.1228 38.9474 24.4737ZM22.4211 36.9474L36.8947 22.4211C37.0351 22.2807 37.1053 22.1228 37.1053 21.9474C37.1053 21.7719 37.0351 21.614 36.8947 21.4737L18.3684 2.94737H3.57895C3.36842 2.94737 3.19298 3 3.05263 3.10526C2.94737 3.21053 2.89474 3.36842 2.89474 3.57895V18.0526C2.89474 18.1228 2.91228 18.2105 2.94737 18.3158C2.98246 18.386 3.03509 18.4561 3.10526 18.5263L21.4737 36.9474C21.614 37.0526 21.7719 37.1053 21.9474 37.1053C22.1228 37.1053 22.2807 37.0526 22.4211 36.9474ZM8.26316 10.7895C8.96491 10.7895 9.5614 10.5439 10.0526 10.0526C10.5789 9.5614 10.8421 8.96491 10.8421 8.26316C10.8421 7.5614 10.5789 6.96491 10.0526 6.47368C9.5614 5.98246 8.98246 5.73684 8.31579 5.73684C7.61404 5.73684 7 5.98246 6.47368 6.47368C5.98246 6.96491 5.73684 7.5614 5.73684 8.26316C5.73684 8.96491 5.98246 9.5614 6.47368 10.0526C6.96491 10.5439 7.5614 10.7895 8.26316 10.7895Z" fill="white"/>
</svg>
