<svg width="40" height="40" viewBox="0 0 40 40" fill="none" xmlns="http://www.w3.org/2000/svg">
<path d="M21.2334 18.7667H30.8334C30.5222 16.2333 29.4778 14.0778 27.7 12.3C25.9222 10.5 23.7667 9.45556 21.2334 9.16667V18.7667ZM18.7667 30.8333V9.16667C16.0111 9.47778 13.7111 10.6667 11.8667 12.7333C10.0222 14.8 9.10002 17.2222 9.10002 20C9.10002 22.7778 10.0222 25.2 11.8667 27.2667C13.7111 29.3333 16.0111 30.5222 18.7667 30.8333ZM21.2334 30.8333C23.7667 30.5667 25.9222 29.5333 27.7 27.7333C29.5 25.9333 30.5445 23.7667 30.8334 21.2333H21.2334V30.8333ZM20 33.3333C18.1556 33.3333 16.4222 32.9889 14.8 32.3C13.1778 31.5889 11.7667 30.6333 10.5667 29.4333C9.36669 28.2333 8.41113 26.8222 7.70002 25.2C7.01113 23.5778 6.66669 21.8444 6.66669 20C6.66669 18.1556 7.01113 16.4222 7.70002 14.8C8.41113 13.1778 9.36669 11.7667 10.5667 10.5667C11.7667 9.36667 13.1778 8.42223 14.8 7.73334C16.4222 7.02223 18.1556 6.66667 20 6.66667C21.8445 6.66667 23.5667 7.02223 25.1667 7.73334C26.7889 8.42223 28.2 9.37778 29.4 10.6C30.6222 11.8 31.5778 13.2111 32.2667 14.8333C32.9778 16.4333 33.3334 18.1556 33.3334 20C33.3334 21.8222 32.9778 23.5444 32.2667 25.1667C31.5778 26.7889 30.6334 28.2111 29.4334 29.4333C28.2334 30.6333 26.8222 31.5889 25.2 32.3C23.5778 32.9889 21.8445 33.3333 20 33.3333Z" fill="white"/>
</svg>
