<svg width="40" height="40" viewBox="0 0 40 40" fill="none" xmlns="http://www.w3.org/2000/svg">
<path d="M19.5952 15.0476V9.28571H13.8333V5.7619H19.5952V0H23.119V5.7619H28.881V9.28571H23.119V15.0476H19.5952ZM11.7381 40C10.7222 40 9.84921 39.6508 9.11905 38.9524C8.42063 38.2222 8.07143 37.3492 8.07143 36.3333C8.07143 35.3175 8.42063 34.4444 9.11905 33.7143C9.84921 32.9841 10.7222 32.619 11.7381 32.619C12.754 32.619 13.627 32.9841 14.3571 33.7143C15.0873 34.4444 15.4524 35.3175 15.4524 36.3333C15.4524 37.3492 15.0873 38.2222 14.3571 38.9524C13.627 39.6508 12.754 40 11.7381 40ZM30.881 40C29.8651 40 28.9921 39.6508 28.2619 38.9524C27.5317 38.2222 27.1667 37.3492 27.1667 36.3333C27.1667 35.3175 27.5317 34.4444 28.2619 33.7143C28.9921 32.9841 29.8651 32.619 30.881 32.619C31.8968 32.619 32.754 32.9841 33.4524 33.7143C34.1825 34.4444 34.5476 35.3175 34.5476 36.3333C34.5476 37.3492 34.1825 38.2222 33.4524 38.9524C32.754 39.6508 31.8968 40 30.881 40ZM0.5 5.38095V1.90476H6.5L14.5952 19.0952H28.0714L35.5476 5.7619H39.5L31.3571 20.6667C31.0079 21.3016 30.5476 21.7937 29.9762 22.1429C29.4048 22.4921 28.7698 22.6667 28.0714 22.6667H13.7857L11.5 26.8571H34.5476V30.381H11.6429C10.3095 30.381 9.27778 29.8095 8.54762 28.6667C7.84921 27.5238 7.83333 26.3651 8.5 25.1905L11.2143 20.1905L4.30952 5.38095H0.5Z" fill="white"/>
</svg>
