<svg width="40" height="40" viewBox="0 0 40 40" fill="none" xmlns="http://www.w3.org/2000/svg">
<path d="M11.6667 27.0333C12.889 26.1222 14.189 25.4222 15.5667 24.9333C16.9667 24.4222 18.4445 24.1667 20.0001 24.1667C21.5556 24.1667 23.0223 24.4222 24.4001 24.9333C25.8001 25.4222 27.1112 26.1222 28.3334 27.0333C29.1779 26.0333 29.8112 24.9445 30.2334 23.7667C30.6779 22.5889 30.9001 21.3333 30.9001 20C30.9001 16.9556 29.8445 14.3778 27.7334 12.2667C25.6223 10.1556 23.0445 9.1 20.0001 9.1C16.9556 9.1 14.3779 10.1556 12.2667 12.2667C10.1556 14.3778 9.10008 16.9556 9.10008 20C9.10008 21.3333 9.31119 22.5889 9.73341 23.7667C10.1779 24.9445 10.8223 26.0333 11.6667 27.0333ZM20.0001 21.2333C18.689 21.2333 17.589 20.7889 16.7001 19.9C15.8112 18.9889 15.3667 17.8889 15.3667 16.6C15.3667 15.2889 15.8112 14.1889 16.7001 13.3C17.589 12.4111 18.689 11.9667 20.0001 11.9667C21.3112 11.9667 22.4112 12.4111 23.3001 13.3C24.189 14.1889 24.6334 15.2889 24.6334 16.6C24.6334 17.8889 24.189 18.9889 23.3001 19.9C22.4112 20.7889 21.3112 21.2333 20.0001 21.2333ZM20.0001 33.3333C18.1556 33.3333 16.4223 32.9889 14.8001 32.3C13.1779 31.5889 11.7667 30.6333 10.5667 29.4333C9.36675 28.2333 8.41119 26.8222 7.70008 25.2C7.01119 23.5778 6.66675 21.8444 6.66675 20C6.66675 18.1556 7.01119 16.4222 7.70008 14.8C8.41119 13.1778 9.36675 11.7667 10.5667 10.5667C11.7667 9.36667 13.1779 8.42223 14.8001 7.73334C16.4223 7.02223 18.1556 6.66667 20.0001 6.66667C21.8445 6.66667 23.5779 7.02223 25.2001 7.73334C26.8223 8.42223 28.2334 9.36667 29.4334 10.5667C30.6334 11.7667 31.5779 13.1778 32.2668 14.8C32.9779 16.4222 33.3334 18.1556 33.3334 20C33.3334 21.8444 32.9779 23.5778 32.2668 25.2C31.5779 26.8222 30.6334 28.2333 29.4334 29.4333C28.2334 30.6333 26.8223 31.5889 25.2001 32.3C23.5779 32.9889 21.8445 33.3333 20.0001 33.3333ZM20.0001 30.9C21.2001 30.9 22.3334 30.7222 23.4001 30.3667C24.489 30.0111 25.5112 29.4778 26.4667 28.7667C25.5112 28.0556 24.489 27.5222 23.4001 27.1667C22.3112 26.7889 21.1779 26.6 20.0001 26.6C18.8223 26.6 17.689 26.7889 16.6001 27.1667C15.5112 27.5222 14.489 28.0556 13.5334 28.7667C14.489 29.4778 15.5001 30.0111 16.5667 30.3667C17.6556 30.7222 18.8001 30.9 20.0001 30.9ZM20.0001 18.7667C20.6445 18.7667 21.1667 18.5667 21.5667 18.1667C21.989 17.7444 22.2001 17.2222 22.2001 16.6C22.2001 15.9556 21.989 15.4333 21.5667 15.0333C21.1667 14.6111 20.6445 14.4 20.0001 14.4C19.3556 14.4 18.8223 14.6111 18.4001 15.0333C18.0001 15.4333 17.8001 15.9556 17.8001 16.6C17.8001 17.2222 18.0001 17.7444 18.4001 18.1667C18.8223 18.5667 19.3556 18.7667 20.0001 18.7667Z" fill="white"/>
</svg>
