<svg width="40" height="40" viewBox="0 0 40 40" fill="none" xmlns="http://www.w3.org/2000/svg">
<path d="M26.165 28.55L28.505 26.165L21.71 19.325V10.82H18.38V20.675L26.165 28.55ZM20 38C17.51 38 15.17 37.535 12.98 36.605C10.79 35.645 8.885 34.355 7.265 32.735C5.645 31.115 4.355 29.21 3.395 27.02C2.465 24.83 2 22.49 2 20C2 17.51 2.465 15.17 3.395 12.98C4.355 10.79 5.645 8.885 7.265 7.265C8.885 5.645 10.79 4.37 12.98 3.44C15.17 2.48 17.51 2 20 2C22.49 2 24.83 2.48 27.02 3.44C29.21 4.37 31.115 5.645 32.735 7.265C34.355 8.885 35.63 10.79 36.56 12.98C37.52 15.17 38 17.51 38 20C38 22.49 37.52 24.83 36.56 27.02C35.63 29.21 34.355 31.115 32.735 32.735C31.115 34.355 29.21 35.645 27.02 36.605C24.83 37.535 22.49 38 20 38Z" fill="white"/>
</svg>
