<svg width="40" height="40" viewBox="0 0 40 40" fill="none" xmlns="http://www.w3.org/2000/svg">
<path d="M37.1111 40L22.8889 25.7778C21.7778 26.7037 20.5 27.4259 19.0556 27.9444C17.6111 28.463 16.0556 28.7222 14.3889 28.7222C10.3889 28.7222 6.98148 27.3333 4.16667 24.5556C1.38889 21.7407 0 18.3333 0 14.3333C0 10.3333 1.38889 6.94444 4.16667 4.16667C6.98148 1.38889 10.3889 0 14.3889 0C18.3889 0 21.7778 1.38889 24.5556 4.16667C27.3333 6.94444 28.7222 10.3333 28.7222 14.3333C28.7222 15.963 28.463 17.5185 27.9444 19C27.4259 20.4444 26.7037 21.7407 25.7778 22.8889L40 37.1111L37.1111 40ZM14.3889 24.6667C17.2407 24.6667 19.6667 23.6667 21.6667 21.6667C23.6667 19.6296 24.6667 17.1852 24.6667 14.3333C24.6667 11.4815 23.6667 9.05556 21.6667 7.05556C19.6667 5.05556 17.2407 4.05556 14.3889 4.05556C11.537 4.05556 9.09259 5.05556 7.05556 7.05556C5.05556 9.05556 4.05556 11.4815 4.05556 14.3333C4.05556 17.1852 5.05556 19.6296 7.05556 21.6667C9.09259 23.6667 11.537 24.6667 14.3889 24.6667Z" fill="white"/>
</svg>
