<svg width="40" height="40" viewBox="0 0 40 40" fill="none" xmlns="http://www.w3.org/2000/svg">
<path d="M35.4 38L22.6 25.2C21.6 26.0333 20.45 26.6833 19.15 27.15C17.85 27.6167 16.45 27.85 14.95 27.85C11.35 27.85 8.28333 26.6 5.75 24.1C3.25 21.5667 2 18.5 2 14.9C2 11.3 3.25 8.25 5.75 5.75C8.28333 3.25 11.35 2 14.95 2C18.55 2 21.6 3.25 24.1 5.75C26.6 8.25 27.85 11.3 27.85 14.9C27.85 16.3667 27.6167 17.7667 27.15 19.1C26.6833 20.4 26.0333 21.5667 25.2 22.6L38 35.4L35.4 38ZM14.95 24.2C17.5167 24.2 19.7 23.3 21.5 21.5C23.3 19.6667 24.2 17.4667 24.2 14.9C24.2 12.3333 23.3 10.15 21.5 8.35C19.7 6.55 17.5167 5.65 14.95 5.65C12.3833 5.65 10.1833 6.55 8.35 8.35C6.55 10.15 5.65 12.3333 5.65 14.9C5.65 17.4667 6.55 19.6667 8.35 21.5C10.1833 23.3 12.3833 24.2 14.95 24.2Z" fill="white"/>
</svg>
