<svg width="40" height="40" viewBox="0 0 40 40" fill="none" xmlns="http://www.w3.org/2000/svg">
<path d="M13.3999 33.3333C12.6888 33.3333 12.0777 33.0778 11.5666 32.5667C11.0777 32.0556 10.8332 31.4445 10.8332 30.7333C10.8332 30.0222 11.0777 29.4222 11.5666 28.9333C12.0777 28.4222 12.6888 28.1667 13.3999 28.1667C14.111 28.1667 14.7221 28.4222 15.2332 28.9333C15.7443 29.4222 15.9999 30.0222 15.9999 30.7333C15.9999 31.4445 15.7443 32.0556 15.2332 32.5667C14.7221 33.0778 14.111 33.3333 13.3999 33.3333ZM26.7332 33.3333C26.0221 33.3333 25.411 33.0778 24.8999 32.5667C24.411 32.0556 24.1666 31.4445 24.1666 30.7333C24.1666 30.0222 24.411 29.4222 24.8999 28.9333C25.411 28.4222 26.0221 28.1667 26.7332 28.1667C27.4443 28.1667 28.0554 28.4222 28.5666 28.9333C29.0777 29.4222 29.3332 30.0222 29.3332 30.7333C29.3332 31.4445 29.0777 32.0556 28.5666 32.5667C28.0554 33.0778 27.4443 33.3333 26.7332 33.3333ZM12.0666 11.7667L15.4332 18.7333H24.8666L28.6999 11.7667H12.0666ZM10.8999 9.33334H30.5666C31.0777 9.33334 31.4666 9.56667 31.7332 10.0333C31.9999 10.4778 31.9999 10.9333 31.7332 11.4L27.0999 19.8C26.8554 20.2222 26.5221 20.5667 26.0999 20.8333C25.6999 21.0778 25.2666 21.2 24.7999 21.2H14.7999L13.1999 24.1333H29.3332V26.5667H13.2999C12.3221 26.5667 11.5888 26.1778 11.0999 25.4C10.6332 24.6 10.6221 23.7778 11.0666 22.9333L12.9999 19.4333L8.09989 9.1H5.46655V6.66667H9.63322L10.8999 9.33334ZM15.4332 18.7333H24.8666H15.4332Z" fill="white"/>
</svg>
