<svg width="40" height="40" viewBox="0 0 40 40" fill="none" xmlns="http://www.w3.org/2000/svg">
<path d="M10.7 25.2667C10.2333 24.4222 9.88887 23.5778 9.66665 22.7333C9.44442 21.8667 9.33331 20.9778 9.33331 20.0667C9.33331 17.1111 10.3666 14.5889 12.4333 12.5C14.5222 10.4111 17.0444 9.36667 20 9.36667H20.6333L18.3333 7.03333L20 5.36667L25.2 10.5667L20 15.8L18.3 14.1L20.6 11.8H20C17.7333 11.8 15.7889 12.6111 14.1666 14.2333C12.5666 15.8333 11.7666 17.7778 11.7666 20.0667C11.7666 20.6667 11.8333 21.2556 11.9666 21.8333C12.1 22.3889 12.2889 22.9222 12.5333 23.4333L10.7 25.2667ZM19.9666 34.6667L14.7666 29.4667L19.9666 24.2333L21.6666 25.9333L19.3333 28.2333H20C22.2666 28.2333 24.2 27.4333 25.8 25.8333C27.4222 24.2111 28.2333 22.2556 28.2333 19.9667C28.2333 19.3667 28.1666 18.7889 28.0333 18.2333C27.9 17.6556 27.7111 17.1111 27.4666 16.6L29.2666 14.7667C29.7555 15.6111 30.1111 16.4667 30.3333 17.3333C30.5555 18.1778 30.6666 19.0556 30.6666 19.9667C30.6666 22.9222 29.6222 25.4444 27.5333 27.5333C25.4666 29.6222 22.9555 30.6667 20 30.6667H19.3333L21.6666 33L19.9666 34.6667Z" fill="white"/>
</svg>
