<svg width="40" height="40" viewBox="0 0 40 40" fill="none" xmlns="http://www.w3.org/2000/svg">
<path d="M12.845 38C11.885 38 11.06 37.655 10.37 36.965C9.71001 36.275 9.38001 35.45 9.38001 34.49C9.38001 33.53 9.71001 32.72 10.37 32.06C11.06 31.37 11.885 31.025 12.845 31.025C13.805 31.025 14.63 31.37 15.32 32.06C16.01 32.72 16.355 33.53 16.355 34.49C16.355 35.45 16.01 36.275 15.32 36.965C14.63 37.655 13.805 38 12.845 38ZM30.845 38C29.885 38 29.06 37.655 28.37 36.965C27.71 36.275 27.38 35.45 27.38 34.49C27.38 33.53 27.71 32.72 28.37 32.06C29.06 31.37 29.885 31.025 30.845 31.025C31.805 31.025 32.63 31.37 33.32 32.06C34.01 32.72 34.355 33.53 34.355 34.49C34.355 35.45 34.01 36.275 33.32 36.965C32.63 37.655 31.805 38 30.845 38ZM9.47001 5.6H36.02C36.71 5.6 37.235 5.915 37.595 6.545C37.955 7.145 37.955 7.76 37.595 8.39L31.34 19.73C31.01 20.3 30.56 20.765 29.99 21.125C29.45 21.455 28.865 21.62 28.235 21.62H14.735L12.575 25.58H34.355V28.865H12.71C11.39 28.865 10.4 28.34 9.74001 27.29C9.11001 26.21 9.09501 25.1 9.69501 23.96L12.305 19.235L5.69001 5.285H2.13501V2H7.76001L9.47001 5.6Z" fill="white"/>
</svg>
