<svg width="40" height="40" viewBox="0 0 40 40" fill="none" xmlns="http://www.w3.org/2000/svg">
<path d="M0 40V31.3333L30.2222 1.16667C30.5926 0.796297 31.0185 0.518519 31.5 0.333335C32.0185 0.111112 32.5556 0 33.1111 0C33.6296 0 34.1296 0.111112 34.6111 0.333335C35.1296 0.518519 35.5926 0.814815 36 1.22222L38.8333 4.11111C39.2407 4.48148 39.537 4.92593 39.7222 5.44444C39.9074 5.96296 40 6.46296 40 6.94445C40 7.5 39.9074 8.03704 39.7222 8.55555C39.537 9.03704 39.2407 9.46296 38.8333 9.83333L8.66667 40H0ZM33.1111 9.77778L35.8889 6.94445L33.0556 4.11111L30.2778 6.94445L33.1111 9.77778Z" fill="white"/>
</svg>
