<svg width="40" height="40" viewBox="0 0 40 40" fill="none" xmlns="http://www.w3.org/2000/svg">
<path d="M12.0499 40C10.9832 40 10.0666 39.6167 9.2999 38.85C8.56657 38.0833 8.1999 37.1667 8.1999 36.1C8.1999 35.0333 8.56657 34.1333 9.2999 33.4C10.0666 32.6333 10.9832 32.25 12.0499 32.25C13.1166 32.25 14.0332 32.6333 14.7999 33.4C15.5666 34.1333 15.9499 35.0333 15.9499 36.1C15.9499 37.1667 15.5666 38.0833 14.7999 38.85C14.0332 39.6167 13.1166 40 12.0499 40ZM32.0499 40C30.9832 40 30.0666 39.6167 29.2999 38.85C28.5666 38.0833 28.1999 37.1667 28.1999 36.1C28.1999 35.0333 28.5666 34.1333 29.2999 33.4C30.0666 32.6333 30.9832 32.25 32.0499 32.25C33.1166 32.25 34.0332 32.6333 34.7999 33.4C35.5666 34.1333 35.9499 35.0333 35.9499 36.1C35.9499 37.1667 35.5666 38.0833 34.7999 38.85C34.0332 39.6167 33.1166 40 32.0499 40ZM10.0499 7.65L15.0999 18.1H29.2499L34.9999 7.65H10.0499ZM8.2999 4H37.7999C38.5666 4 39.1499 4.35 39.5499 5.05C39.9499 5.71667 39.9499 6.4 39.5499 7.1L32.5999 19.7C32.2332 20.3333 31.7332 20.85 31.0999 21.25C30.4999 21.6167 29.8499 21.8 29.1499 21.8H14.1499L11.7499 26.2H35.9499V29.85H11.8999C10.4332 29.85 9.33324 29.2667 8.5999 28.1C7.8999 26.9 7.88324 25.6667 8.5499 24.4L11.4499 19.15L4.0999 3.65H0.149902V0H6.3999L8.2999 4ZM15.0999 18.1H29.2499H15.0999Z" fill="white"/>
</svg>
