<svg width="40" height="40" viewBox="0 0 40 40" fill="none" xmlns="http://www.w3.org/2000/svg">
<path d="M9.33335 33.3333V18.6H6.66669V10.7333H13.7334C13.6 10.5111 13.5 10.2778 13.4334 10.0333C13.3889 9.76666 13.3667 9.49999 13.3667 9.23333C13.3667 8.14444 13.7445 7.22222 14.5 6.46666C15.2778 5.71111 16.2111 5.33333 17.3 5.33333C17.8111 5.33333 18.3 5.43333 18.7667 5.63333C19.2334 5.83333 19.6445 6.11111 20 6.46666C20.3556 6.08888 20.7667 5.81111 21.2334 5.63333C21.7 5.43333 22.1889 5.33333 22.7 5.33333C23.7889 5.33333 24.7111 5.71111 25.4667 6.46666C26.2445 7.22222 26.6334 8.14444 26.6334 9.23333C26.6334 9.49999 26.6 9.75555 26.5334 9.99999C26.4667 10.2444 26.3778 10.4889 26.2667 10.7333H33.3334V18.6H30.6667V33.3333H9.33335ZM22.7 7.76666C22.3 7.76666 21.9556 7.91111 21.6667 8.2C21.3778 8.48888 21.2334 8.83333 21.2334 9.23333C21.2334 9.65555 21.3778 10.0111 21.6667 10.3C21.9556 10.5667 22.3 10.7 22.7 10.7C23.1222 10.7 23.4667 10.5667 23.7334 10.3C24.0222 10.0111 24.1667 9.65555 24.1667 9.23333C24.1667 8.83333 24.0222 8.48888 23.7334 8.2C23.4667 7.91111 23.1222 7.76666 22.7 7.76666ZM15.8334 9.23333C15.8334 9.65555 15.9667 10.0111 16.2334 10.3C16.5222 10.5667 16.8778 10.7 17.3 10.7C17.7 10.7 18.0445 10.5667 18.3334 10.3C18.6222 10.0111 18.7667 9.65555 18.7667 9.23333C18.7667 8.83333 18.6222 8.48888 18.3334 8.2C18.0445 7.91111 17.7 7.76666 17.3 7.76666C16.8778 7.76666 16.5222 7.91111 16.2334 8.2C15.9667 8.48888 15.8334 8.83333 15.8334 9.23333ZM9.10002 13.1667V16.1667H18.7667V13.1667H9.10002ZM18.7667 30.9V18.6H11.7V30.9H18.7667ZM21.2334 30.9H28.3V18.6H21.2334V30.9ZM30.9 16.1667V13.1667H21.2334V16.1667H30.9Z" fill="white"/>
</svg>
