<svg width="27" height="20" viewBox="0 0 27 20" fill="none" xmlns="http://www.w3.org/2000/svg">
<g clip-path="url(#clip0_3717_22418)">
<path d="M26.1019 3.58178C25.7901 2.43254 24.9136 1.53645 23.7449 1.22479C21.6801 0.659912 13.3236 0.659912 13.3236 0.659912C13.3236 0.659912 4.98661 0.659912 2.92187 1.22479C1.77256 1.53645 0.876541 2.43254 0.545395 3.58178C0 5.64653 0 9.99033 0 9.99033C0 9.99033 0 14.3341 0.545395 16.4184C0.876541 17.5482 1.77256 18.4637 2.92187 18.7754C4.98661 19.3402 13.3236 19.3402 13.3236 19.3402C13.3236 19.3402 21.6801 19.3402 23.7449 18.7754C24.9136 18.4637 25.7901 17.5482 26.1019 16.4184C26.6667 14.3341 26.6667 9.99033 26.6667 9.99033C26.6667 9.99033 26.6667 5.64653 26.1019 3.58178ZM10.6744 14.003V5.99715L17.5895 9.99033L10.6744 14.003Z" fill="white"/>
</g>
<defs>
<clipPath id="clip0_3717_22418">
<rect width="26.6667" height="20" fill="white"/>
</clipPath>
</defs>
</svg>
