<svg width="40" height="40" viewBox="0 0 40 40" fill="none" xmlns="http://www.w3.org/2000/svg">
<path d="M30.2667 32L21.7333 23.4667C21.0667 24.0222 20.3 24.4556 19.4333 24.7667C18.5667 25.0778 17.6333 25.2333 16.6333 25.2333C14.2333 25.2333 12.1889 24.4 10.5 22.7333C8.83333 21.0444 8 19 8 16.6C8 14.2 8.83333 12.1667 10.5 10.5C12.1889 8.83333 14.2333 8 16.6333 8C19.0333 8 21.0667 8.83333 22.7333 10.5C24.4 12.1667 25.2333 14.2 25.2333 16.6C25.2333 17.5778 25.0778 18.5111 24.7667 19.4C24.4556 20.2667 24.0222 21.0444 23.4667 21.7333L32 30.2667L30.2667 32ZM16.6333 22.8C18.3444 22.8 19.8 22.2 21 21C22.2 19.7778 22.8 18.3111 22.8 16.6C22.8 14.8889 22.2 13.4333 21 12.2333C19.8 11.0333 18.3444 10.4333 16.6333 10.4333C14.9222 10.4333 13.4556 11.0333 12.2333 12.2333C11.0333 13.4333 10.4333 14.8889 10.4333 16.6C10.4333 18.3111 11.0333 19.7778 12.2333 21C13.4556 22.2 14.9222 22.8 16.6333 22.8Z" fill="white"/>
</svg>
