<svg width="40" height="40" viewBox="0 0 40 40" fill="none" xmlns="http://www.w3.org/2000/svg">
<path d="M18.5666 24.6333L26.1333 17.0667L24.4 15.3667L18.6 21.1333L15.6333 18.1667L13.8666 19.9L18.5666 24.6333ZM20 33.3333C16.9111 32.5556 14.3555 30.7778 12.3333 28C10.3333 25.2 9.33331 22.1111 9.33331 18.7333V10.6667L20 6.66667L30.6666 10.6667V18.7333C30.6666 22.1111 29.6555 25.2 27.6333 28C25.6333 30.7778 23.0889 32.5556 20 33.3333ZM20 30.7667C22.4 29.9889 24.3666 28.4778 25.9 26.2333C27.4555 23.9889 28.2333 21.4889 28.2333 18.7333V12.3333L20 9.26667L11.7666 12.3333V18.7333C11.7666 21.4889 12.5333 23.9889 14.0666 26.2333C15.6222 28.4778 17.6 29.9889 20 30.7667Z" fill="white"/>
</svg>
