<svg width="27" height="20" viewBox="0 0 27 20" fill="none" xmlns="http://www.w3.org/2000/svg">
<g clip-path="url(#clip0_3717_22418)">
<path d="M26.7685 3.58178C26.4568 2.43254 25.5802 1.53645 24.4115 1.22479C22.3467 0.659912 13.9902 0.659912 13.9902 0.659912C13.9902 0.659912 5.65324 0.659912 3.58849 1.22479C2.43919 1.53645 1.54317 2.43254 1.21202 3.58178C0.666626 5.64653 0.666626 9.99033 0.666626 9.99033C0.666626 9.99033 0.666626 14.3341 1.21202 16.4184C1.54317 17.5482 2.43919 18.4637 3.58849 18.7754C5.65324 19.3402 13.9902 19.3402 13.9902 19.3402C13.9902 19.3402 22.3467 19.3402 24.4115 18.7754C25.5802 18.4637 26.4568 17.5482 26.7685 16.4184C27.3333 14.3341 27.3333 9.99033 27.3333 9.99033C27.3333 9.99033 27.3333 5.64653 26.7685 3.58178ZM11.341 14.003V5.99715L18.2562 9.99033L11.341 14.003Z" fill="white"/>
</g>
<defs>
<clipPath id="clip0_3717_22418">
<rect width="27" height="20" fill="white"/>
</clipPath>
</defs>
</svg>
