<svg width="40" height="40" viewBox="0 0 40 40" fill="none" xmlns="http://www.w3.org/2000/svg">
<path d="M11.7667 33.3333C11.1 33.3333 10.5223 33.1 10.0334 32.6333C9.56671 32.1444 9.33337 31.5667 9.33337 30.9V17.1667C9.33337 16.5 9.56671 15.9333 10.0334 15.4667C10.5223 14.9778 11.1 14.7333 11.7667 14.7333H13.4334V11.9C13.4334 10.0778 14.0667 8.53333 15.3334 7.26666C16.6223 5.97777 18.1778 5.33333 20 5.33333C21.8223 5.33333 23.3667 5.97777 24.6334 7.26666C25.9223 8.53333 26.5667 10.0778 26.5667 11.9V14.7333H28.2334C28.9 14.7333 29.4667 14.9778 29.9334 15.4667C30.4223 15.9333 30.6667 16.5 30.6667 17.1667V30.9C30.6667 31.5667 30.4223 32.1444 29.9334 32.6333C29.4667 33.1 28.9 33.3333 28.2334 33.3333H11.7667ZM20 26.6667C20.7334 26.6667 21.3556 26.4111 21.8667 25.9C22.3778 25.3889 22.6334 24.7778 22.6334 24.0667C22.6334 23.3556 22.3778 22.7333 21.8667 22.2C21.3556 21.6667 20.7334 21.4 20 21.4C19.2667 21.4 18.6445 21.6667 18.1334 22.2C17.6223 22.7333 17.3667 23.3556 17.3667 24.0667C17.3667 24.7778 17.6223 25.3889 18.1334 25.9C18.6445 26.4111 19.2667 26.6667 20 26.6667ZM15.9 14.7333H24.1V11.9C24.1 10.7444 23.7 9.76666 22.9 8.96666C22.1 8.16666 21.1334 7.76666 20 7.76666C18.8667 7.76666 17.9 8.16666 17.1 8.96666C16.3 9.76666 15.9 10.7444 15.9 11.9V14.7333Z" fill="white"/>
</svg>
