<svg width="27" height="20" viewBox="0 0 27 20" fill="none" xmlns="http://www.w3.org/2000/svg">
<g clip-path="url(#clip0_3717_22418)">
<path fill-rule="evenodd" clip-rule="evenodd" d="M10.3876 13.5345L10.3868 5.87791L17.4608 9.71942L10.3876 13.5345ZM25.92 4.55114C25.92 4.55114 25.6639 2.67339 24.8793 1.8465C23.8835 0.760728 22.7675 0.755619 22.2562 0.692601C18.5924 0.416687 13.0966 0.416687 13.0966 0.416687H13.0852C13.0852 0.416687 7.58945 0.416687 3.92564 0.692601C3.41345 0.755619 2.29827 0.760728 1.30173 1.8465C0.517091 2.67339 0.261818 4.55114 0.261818 4.55114C0.261818 4.55114 0 6.75675 0 8.96151V11.0292C0 13.2348 0.261818 15.4395 0.261818 15.4395C0.261818 15.4395 0.517091 17.3173 1.30173 18.1442C2.29827 19.2299 3.60654 19.1959 4.18909 19.3091C6.28364 19.5186 13.0909 19.5834 13.0909 19.5834C13.0909 19.5834 18.5924 19.5748 22.2562 19.2989C22.7675 19.2351 23.8835 19.2299 24.8793 18.1442C25.6639 17.3173 25.92 15.4395 25.92 15.4395C25.92 15.4395 26.1818 13.2348 26.1818 11.0292V8.96151C26.1818 6.75675 25.92 4.55114 25.92 4.55114Z" fill="white"/>
</g>
<defs>
<clipPath id="clip0_3717_22418">
<rect width="27" height="20" fill="white"/>
</clipPath>
</defs>
</svg>
