<svg width="120" height="38" viewBox="0 0 120 38" fill="none" xmlns="http://www.w3.org/2000/svg">
<g clip-path="url(#clip0_11819_131)">
<path d="M115.366 23.4781V16.7418H116.634V17.8119H116.704C116.827 17.4493 117.043 17.1642 117.353 16.9567C117.666 16.7461 118.02 16.6409 118.414 16.6409C118.496 16.6409 118.593 16.6438 118.704 16.6497C118.818 16.6555 118.907 16.6628 118.971 16.6716V17.9259C118.919 17.9113 118.825 17.8952 118.691 17.8776C118.556 17.8572 118.422 17.8469 118.287 17.8469C117.977 17.8469 117.701 17.9127 117.458 18.0443C117.218 18.1729 117.028 18.3528 116.888 18.5837C116.748 18.8118 116.678 19.072 116.678 19.3644V23.4781H115.366Z" fill="currentColor"/>
<path d="M111.02 23.6141C110.357 23.6141 109.785 23.4723 109.306 23.1887C108.829 22.9021 108.461 22.5001 108.2 21.9826C107.943 21.4622 107.814 20.8526 107.814 20.1538C107.814 19.4638 107.943 18.8556 108.2 18.3294C108.461 17.8031 108.823 17.3923 109.288 17.097C109.756 16.8017 110.303 16.654 110.928 16.654C111.308 16.654 111.677 16.7169 112.033 16.8426C112.39 16.9683 112.71 17.1657 112.994 17.4347C113.278 17.7037 113.501 18.0531 113.665 18.4829C113.829 18.9097 113.911 19.4287 113.911 20.0398V20.5046H108.556V19.5223H112.626C112.626 19.1773 112.555 18.8717 112.415 18.6057C112.275 18.3367 112.077 18.1247 111.823 17.9697C111.571 17.8148 111.276 17.7373 110.937 17.7373C110.569 17.7373 110.247 17.8279 109.972 18.0092C109.7 18.1876 109.49 18.4215 109.341 18.7109C109.194 18.9974 109.121 19.3088 109.121 19.6451V20.4126C109.121 20.8628 109.2 21.2458 109.358 21.5616C109.519 21.8774 109.743 22.1186 110.029 22.2852C110.316 22.449 110.651 22.5308 111.034 22.5308C111.282 22.5308 111.509 22.4957 111.713 22.4256C111.918 22.3525 112.095 22.2443 112.244 22.101C112.393 21.9578 112.507 21.7809 112.586 21.5704L113.827 21.794C113.728 22.1595 113.549 22.4797 113.292 22.7545C113.038 23.0264 112.718 23.2384 112.332 23.3904C111.949 23.5395 111.512 23.6141 111.02 23.6141Z" fill="currentColor"/>
<path d="M102.048 19.4784V23.4781H100.736V16.7418H101.995V17.8382H102.078C102.233 17.4815 102.476 17.1949 102.806 16.9786C103.14 16.7622 103.559 16.654 104.065 16.654C104.524 16.654 104.926 16.7505 105.271 16.9435C105.616 17.1335 105.884 17.4171 106.074 17.7943C106.264 18.1715 106.359 18.6378 106.359 19.1933V23.4781H105.047V19.3512C105.047 18.863 104.92 18.4814 104.666 18.2066C104.412 17.9288 104.062 17.7899 103.618 17.7899C103.314 17.7899 103.043 17.8557 102.806 17.9873C102.572 18.1189 102.387 18.3118 102.249 18.5662C102.115 18.8176 102.048 19.1217 102.048 19.4784Z" fill="currentColor"/>
<path d="M94.6668 19.4784V23.4781H93.3555V16.7418H94.6142V17.8382H94.6975C94.8524 17.4815 95.0951 17.1949 95.4255 16.9786C95.7588 16.7622 96.1784 16.654 96.6842 16.654C97.1432 16.654 97.5452 16.7505 97.8902 16.9435C98.2352 17.1335 98.5028 17.4171 98.6928 17.7943C98.8829 18.1715 98.9779 18.6378 98.9779 19.1933V23.4781H97.6666V19.3512C97.6666 18.863 97.5394 18.4814 97.285 18.2066C97.0306 17.9288 96.6813 17.7899 96.2368 17.7899C95.9328 17.7899 95.6623 17.8557 95.4255 17.9873C95.1916 18.1189 95.0059 18.3118 94.8685 18.5662C94.734 18.8176 94.6668 19.1217 94.6668 19.4784Z" fill="currentColor"/>
<path d="M89.0106 23.6141C88.3469 23.6141 87.7753 23.4723 87.2958 23.1887C86.8192 22.9021 86.4508 22.5001 86.1906 21.9826C85.9333 21.4622 85.8047 20.8526 85.8047 20.1538C85.8047 19.4638 85.9333 18.8556 86.1906 18.3294C86.4508 17.8031 86.8134 17.3923 87.2783 17.097C87.7461 16.8017 88.2928 16.654 88.9185 16.654C89.2986 16.654 89.667 16.7169 90.0237 16.8426C90.3804 16.9683 90.7005 17.1657 90.9841 17.4347C91.2678 17.7037 91.4914 18.0531 91.6552 18.4829C91.8189 18.9097 91.9007 19.4287 91.9007 20.0398V20.5046H86.5459V19.5223H90.6158C90.6158 19.1773 90.5456 18.8717 90.4052 18.6057C90.2649 18.3367 90.0675 18.1247 89.8132 17.9697C89.5617 17.8148 89.2664 17.7373 88.9273 17.7373C88.5589 17.7373 88.2373 17.8279 87.9624 18.0092C87.6905 18.1876 87.48 18.4215 87.3309 18.7109C87.1847 18.9974 87.1116 19.3088 87.1116 19.6451V20.4126C87.1116 20.8628 87.1906 21.2458 87.3484 21.5616C87.5092 21.8774 87.7329 22.1186 88.0194 22.2852C88.306 22.449 88.6407 22.5308 89.0238 22.5308C89.2723 22.5308 89.4989 22.4957 89.7035 22.4256C89.9082 22.3525 90.0851 22.2443 90.2342 22.101C90.3833 21.9578 90.4973 21.7809 90.5763 21.5704L91.8174 21.794C91.718 22.1595 91.5397 22.4797 91.2824 22.7545C91.028 23.0264 90.7078 23.2384 90.3219 23.3904C89.9389 23.5395 89.5018 23.6141 89.0106 23.6141Z" fill="currentColor"/>
<path d="M81.6084 23.4781V16.7418H82.8759V17.8119H82.946C83.0688 17.4493 83.2852 17.1642 83.5951 16.9567C83.9079 16.7461 84.2617 16.6409 84.6564 16.6409C84.7383 16.6409 84.8348 16.6438 84.9459 16.6497C85.0599 16.6555 85.1491 16.6628 85.2134 16.6716V17.9259C85.1608 17.9113 85.0672 17.8952 84.9327 17.8776C84.7982 17.8572 84.6637 17.8469 84.5292 17.8469C84.2193 17.8469 83.943 17.9127 83.7004 18.0443C83.4606 18.1729 83.2706 18.3528 83.1302 18.5837C82.9899 18.8118 82.9197 19.072 82.9197 19.3644V23.4781H81.6084Z" fill="currentColor"/>
<path d="M73.9824 23.4781V14.4963H75.2937V17.8338H75.3727C75.4487 17.6934 75.5583 17.5312 75.7016 17.347C75.8449 17.1628 76.0437 17.002 76.298 16.8646C76.5524 16.7242 76.8886 16.654 77.3067 16.654C77.8506 16.654 78.3359 16.7915 78.7628 17.0663C79.1897 17.3411 79.5244 17.7373 79.7671 18.2548C80.0127 18.7723 80.1355 19.3951 80.1355 20.1231C80.1355 20.8511 80.0142 21.4753 79.7715 21.9958C79.5288 22.5133 79.1955 22.9124 78.7716 23.1931C78.3476 23.4708 77.8637 23.6097 77.3199 23.6097C76.9106 23.6097 76.5758 23.541 76.3156 23.4036C76.0583 23.2662 75.8566 23.1053 75.7104 22.9211C75.5642 22.737 75.4516 22.5732 75.3727 22.43H75.263V23.4781H73.9824ZM75.2674 20.1099C75.2674 20.5836 75.3361 20.9988 75.4735 21.3555C75.611 21.7122 75.8098 21.9914 76.07 22.1931C76.3302 22.3919 76.6489 22.4914 77.0261 22.4914C77.4178 22.4914 77.7453 22.3876 78.0085 22.18C78.2716 21.9695 78.4704 21.6844 78.6049 21.3248C78.7423 20.9651 78.811 20.5602 78.811 20.1099C78.811 19.6655 78.7438 19.2664 78.6093 18.9127C78.4777 18.5589 78.2789 18.2797 78.0128 18.075C77.7497 17.8703 77.4208 17.768 77.0261 17.768C76.646 17.768 76.3244 17.866 76.0612 18.0618C75.801 18.2577 75.6037 18.5311 75.4692 18.882C75.3347 19.2328 75.2674 19.6421 75.2674 20.1099Z" fill="currentColor"/>
<path d="M68.6681 23.6097C68.1243 23.6097 67.639 23.4708 67.2121 23.1931C66.7881 22.9124 66.4548 22.5133 66.2122 21.9958C65.9724 21.4753 65.8525 20.8511 65.8525 20.1231C65.8525 19.3951 65.9739 18.7723 66.2165 18.2548C66.4621 17.7373 66.7984 17.3411 67.2252 17.0663C67.6521 16.7915 68.136 16.654 68.6769 16.654C69.095 16.654 69.4312 16.7242 69.6856 16.8646C69.9429 17.002 70.1417 17.1628 70.2821 17.347C70.4253 17.5312 70.5364 17.6934 70.6154 17.8338H70.6943V14.4963H72.0056V23.4781H70.725V22.43H70.6154C70.5364 22.5732 70.4224 22.737 70.2733 22.9211C70.1271 23.1053 69.9254 23.2662 69.6681 23.4036C69.4108 23.541 69.0775 23.6097 68.6681 23.6097ZM68.9576 22.4914C69.3347 22.4914 69.6534 22.3919 69.9137 22.1931C70.1768 21.9914 70.3756 21.7122 70.5101 21.3555C70.6475 20.9988 70.7162 20.5836 70.7162 20.1099C70.7162 19.6421 70.649 19.2328 70.5145 18.882C70.38 18.5311 70.1826 18.2577 69.9224 18.0618C69.6622 17.866 69.3406 17.768 68.9576 17.768C68.5629 17.768 68.2339 17.8703 67.9708 18.075C67.7077 18.2797 67.5089 18.5589 67.3744 18.9127C67.2428 19.2664 67.177 19.6655 67.177 20.1099C67.177 20.5602 67.2443 20.9651 67.3787 21.3248C67.5132 21.6844 67.7121 21.9695 67.9752 22.18C68.2413 22.3876 68.5687 22.4914 68.9576 22.4914Z" fill="currentColor"/>
<path d="M60.0769 19.4784V23.4781H58.7656V16.7418H60.0243V17.8382H60.1076C60.2626 17.4815 60.5053 17.1949 60.8357 16.9786C61.169 16.7622 61.5885 16.654 62.0943 16.654C62.5534 16.654 62.9554 16.7505 63.3004 16.9435C63.6454 17.1335 63.9129 17.4171 64.103 17.7943C64.293 18.1715 64.388 18.6378 64.388 19.1933V23.4781H63.0767V19.3512C63.0767 18.863 62.9495 18.4814 62.6952 18.2066C62.4408 17.9288 62.0914 17.7899 61.647 17.7899C61.3429 17.7899 61.0725 17.8557 60.8357 17.9873C60.6018 18.1189 60.4161 18.3118 60.2787 18.5662C60.1442 18.8176 60.0769 19.1217 60.0769 19.4784Z" fill="currentColor"/>
<path d="M55.6881 20.6845V16.7418H57.0038V23.4781H55.7145V22.3116H55.6443C55.4893 22.6712 55.2408 22.9709 54.8987 23.2106C54.5596 23.4474 54.1371 23.5659 53.6313 23.5659C53.1985 23.5659 52.8155 23.4708 52.4822 23.2808C52.1518 23.0878 51.8916 22.8027 51.7016 22.4256C51.5145 22.0484 51.4209 21.5821 51.4209 21.0266V16.7418H52.7322V20.8687C52.7322 21.3277 52.8594 21.6932 53.1138 21.9651C53.3681 22.237 53.6985 22.373 54.1049 22.373C54.3505 22.373 54.5946 22.3116 54.8373 22.1888C55.0829 22.066 55.2861 21.8803 55.4469 21.6318C55.6107 21.3833 55.6911 21.0675 55.6881 20.6845Z" fill="currentColor"/>
<path d="M46.8169 23.6141C46.1854 23.6141 45.6342 23.4694 45.1635 23.1799C44.6928 22.8904 44.3273 22.4855 44.0671 21.9651C43.8069 21.4446 43.6768 20.8365 43.6768 20.1406C43.6768 19.4419 43.8069 18.8308 44.0671 18.3074C44.3273 17.7841 44.6928 17.3777 45.1635 17.0882C45.6342 16.7988 46.1854 16.654 46.8169 16.654C47.4484 16.654 47.9995 16.7988 48.4703 17.0882C48.941 17.3777 49.3065 17.7841 49.5667 18.3074C49.8269 18.8308 49.957 19.4419 49.957 20.1406C49.957 20.8365 49.8269 21.4446 49.5667 21.9651C49.3065 22.4855 48.941 22.8904 48.4703 23.1799C47.9995 23.4694 47.4484 23.6141 46.8169 23.6141ZM46.8213 22.5133C47.2306 22.5133 47.5698 22.4051 47.8387 22.1887C48.1077 21.9724 48.3065 21.6844 48.4352 21.3248C48.5668 20.9651 48.6325 20.569 48.6325 20.1363C48.6325 19.7065 48.5668 19.3118 48.4352 18.9521C48.3065 18.5896 48.1077 18.2987 47.8387 18.0794C47.5698 17.8601 47.2306 17.7505 46.8213 17.7505C46.409 17.7505 46.0669 17.8601 45.795 18.0794C45.526 18.2987 45.3258 18.5896 45.1942 18.9521C45.0655 19.3118 45.0012 19.7065 45.0012 20.1363C45.0012 20.569 45.0655 20.9651 45.1942 21.3248C45.3258 21.6844 45.526 21.9724 45.795 22.1887C46.0669 22.4051 46.409 22.5133 46.8213 22.5133Z" fill="currentColor"/>
<path d="M41.0353 16.8558C40.9885 16.4406 40.7955 16.119 40.4564 15.8909C40.1172 15.66 39.6903 15.5445 39.1757 15.5445C38.8074 15.5445 38.4887 15.6029 38.2197 15.7199C37.9507 15.8339 37.7416 15.9918 37.5925 16.1935C37.4463 16.3924 37.3732 16.619 37.3732 16.8733C37.3732 17.0868 37.4229 17.271 37.5224 17.4259C37.6247 17.5809 37.7577 17.711 37.9214 17.8162C38.0881 17.9186 38.2665 18.0048 38.4565 18.075C38.6465 18.1422 38.8293 18.1978 39.0047 18.2416L39.8818 18.4697C40.1684 18.5399 40.4622 18.6349 40.7634 18.7548C41.0645 18.8746 41.3437 19.0325 41.601 19.2284C41.8583 19.4243 42.0659 19.667 42.2238 19.9564C42.3846 20.2459 42.465 20.5924 42.465 20.9958C42.465 21.5046 42.3334 21.9563 42.0703 22.351C41.8101 22.7457 41.4314 23.0571 40.9344 23.2851C40.4403 23.5132 39.8424 23.6272 39.1407 23.6272C38.4682 23.6272 37.8864 23.5205 37.3952 23.3071C36.904 23.0936 36.5195 22.791 36.2417 22.3992C35.964 22.0045 35.8105 21.5367 35.7812 20.9958H37.1408C37.1671 21.3204 37.2724 21.5908 37.4566 21.8072C37.6437 22.0206 37.882 22.18 38.1714 22.2852C38.4638 22.3875 38.784 22.4387 39.1319 22.4387C39.5149 22.4387 39.8555 22.3788 40.1537 22.2589C40.4549 22.1361 40.6917 21.9665 40.8642 21.7502C41.0367 21.5309 41.123 21.2751 41.123 20.9827C41.123 20.7166 41.047 20.4988 40.8949 20.3292C40.7458 20.1596 40.5426 20.0193 40.2853 19.9082C40.0309 19.7971 39.743 19.6991 39.4213 19.6144L38.36 19.3249C37.6408 19.129 37.0706 18.841 36.6496 18.4609C36.2315 18.0808 36.0225 17.5779 36.0225 16.9523C36.0225 16.4348 36.1628 15.983 36.4435 15.5971C36.7242 15.2112 37.1043 14.9115 37.5838 14.698C38.0633 14.4817 38.6041 14.3735 39.2064 14.3735C39.8146 14.3735 40.3511 14.4802 40.816 14.6936C41.2838 14.9071 41.6522 15.2009 41.9212 15.5752C42.1902 15.9465 42.3305 16.3734 42.3422 16.8558H41.0353Z" fill="currentColor"/>
<g clip-path="url(#clip1_11819_131)">
<path d="M1.58333 16.625H0V21.375H1.58333V16.625Z" fill="currentColor"/>
<path d="M30.0833 16.625H28.5V21.375H30.0833V16.625Z" fill="currentColor"/>
<path d="M6.33333 15.0417H4.75V23.75H6.33333V15.0417Z" fill="currentColor"/>
<path d="M25.3333 15.0417H23.75V23.75H25.3333V15.0417Z" fill="currentColor"/>
<path d="M11.0833 10.2917H9.5V27.7083H11.0833V10.2917Z" fill="currentColor"/>
<path d="M20.5833 10.2917H19V27.7083H20.5833V10.2917Z" fill="currentColor"/>
<path d="M15.8358 0H14.25V38H15.8358V0Z" fill="currentColor"/>
</g>
</g>
<defs>
<clipPath id="clip0_11819_131">
<rect width="119.7" height="38" fill="currentColor"/>
</clipPath>
<clipPath id="clip1_11819_131">
<rect width="30.0833" height="38" fill="currentColor"/>
</clipPath>
</defs>
</svg>
