<svg width="67" height="16" viewBox="0 0 67 16" fill="none" xmlns="http://www.w3.org/2000/svg">
<g clip-path="url(#clip0_11597_207917)">
<path fill-rule="evenodd" clip-rule="evenodd" d="M44.2952 0C42.9548 0 41.8682 1.0888 41.8682 2.4319V13.4922C41.8682 14.8353 42.9548 15.9241 44.2952 15.9241H64.0729C65.4133 15.9241 66.4999 14.8353 66.4999 13.4922V2.4319C66.4999 1.0888 65.4133 0 64.0729 0H44.2952ZM47.7109 11.1124V8.30889H49.4709C51.079 8.30889 51.9342 7.40543 51.9342 6.03629C51.9342 4.66715 51.079 3.84752 49.4709 3.84752H46.5769V11.1124H47.7109ZM47.7109 4.92794H49.2107C50.2517 4.92794 50.763 5.35638 50.763 6.07355C50.763 6.79072 50.2703 7.21916 49.2571 7.21916H47.7109V4.92794ZM53.9334 11.2614C54.7979 11.2614 55.3649 10.8795 55.6252 10.2275C55.6995 10.954 56.1364 11.3266 57.0845 11.0751L57.0938 10.302C56.7126 10.3393 56.6383 10.1996 56.6383 9.79912V7.89907C56.6383 6.7814 55.904 6.12012 54.5469 6.12012C53.2084 6.12012 52.4369 6.79072 52.4369 7.92701H53.478C53.478 7.38681 53.8591 7.06082 54.5283 7.06082C55.2347 7.06082 55.5601 7.36819 55.5508 7.89907V8.14124L54.3517 8.27163C53.0039 8.42065 52.2603 8.93292 52.2603 9.82702C52.2603 10.5628 52.7808 11.2614 53.9334 11.2614ZM54.1658 10.4231C53.5802 10.4231 53.3478 10.1064 53.3478 9.78976C53.3478 9.36136 53.8312 9.16577 54.7793 9.054L55.5229 8.97018C55.4764 9.78976 54.928 10.4231 54.1658 10.4231ZM60.5368 11.4756C60.0628 12.6305 59.3006 12.9751 58.1108 12.9751H57.5996V12.0252H58.148C58.7987 12.0252 59.1147 11.8202 59.4586 11.2335L57.3486 6.26914H58.5198L60.0256 9.89229L61.3641 6.26914H62.5075L60.5368 11.4756Z" fill="white"/>
<path d="M5.5882 6.99949C4.0355 6.662 3.34378 6.52993 3.34378 5.93039C3.34378 5.36649 3.81189 5.08559 4.74811 5.08559C5.57149 5.08559 6.17335 5.44615 6.61637 6.15259C6.64981 6.2071 6.71877 6.22597 6.7752 6.19662L8.52226 5.31199C8.58495 5.28054 8.60794 5.20088 8.57241 5.14009C7.84726 3.88023 6.50771 3.19055 4.74394 3.19055C2.42637 3.19055 0.986511 4.33512 0.986511 6.15469C0.986511 8.08746 2.73983 8.5759 4.29463 8.9134C5.84942 9.2509 6.54323 9.38296 6.54323 9.98246C6.54323 10.5821 6.0375 10.865 5.02814 10.865C4.0961 10.865 3.40439 10.4374 2.98643 9.60726C2.95508 9.54647 2.88194 9.52132 2.82134 9.55277L1.07846 10.4186C1.01785 10.45 0.992782 10.5233 1.02412 10.5863C1.71584 11.9802 3.1348 12.7642 5.03024 12.7642C7.44392 12.7642 8.90259 11.6386 8.90259 9.76237C8.90259 7.88622 7.14091 7.34119 5.5882 7.00368V6.99949Z" fill="white"/>
<path d="M14.9504 3.19054C13.9598 3.19054 13.0842 3.54271 12.4552 4.1695C12.4155 4.20724 12.3507 4.17999 12.3507 4.12548V0.123681C12.3507 0.0545033 12.2963 0 12.2274 0H10.0415C9.97254 0 9.91821 0.0545033 9.91821 0.123681V12.5442C9.91821 12.6134 9.97254 12.6678 10.0415 12.6678H12.2274C12.2963 12.6678 12.3507 12.6134 12.3507 12.5442V7.09591C12.3507 6.04358 13.1553 5.23651 14.2398 5.23651C15.3245 5.23651 16.1102 6.02681 16.1102 7.09591V12.5442C16.1102 12.6134 16.1645 12.6678 16.2335 12.6678H18.4194C18.4884 12.6678 18.5428 12.6134 18.5428 12.5442V7.09591C18.5428 4.80677 17.0465 3.19263 14.9504 3.19263V3.19054Z" fill="white"/>
<path d="M22.9772 2.83417C21.7902 2.83417 20.6784 3.19893 19.8801 3.72509C19.8258 3.76072 19.807 3.8341 19.8404 3.89069L20.8038 5.54047C20.8393 5.59916 20.9145 5.62013 20.973 5.58449C21.5791 5.21764 22.2729 5.02688 22.9814 5.03108C24.8893 5.03108 26.2916 6.38107 26.2916 8.16502C26.2916 9.68482 25.1693 10.8105 23.7462 10.8105C22.5864 10.8105 21.7818 10.1334 21.7818 9.17751C21.7818 8.63039 22.0138 8.18179 22.6177 7.86524C22.6804 7.83171 22.7034 7.75414 22.6658 7.69335L21.7567 6.15049C21.7275 6.10018 21.6648 6.07711 21.6083 6.09808C20.39 6.55088 19.5353 7.64094 19.5353 9.10415C19.5353 11.3178 21.2928 12.9697 23.7441 12.9697C26.6071 12.9697 28.6655 10.9804 28.6655 8.12728C28.6655 5.06881 26.2706 2.83417 22.9772 2.83417Z" fill="white"/>
<path d="M35.0579 3.17379C33.9525 3.17379 32.9661 3.58257 32.2451 4.30369C32.2054 4.34352 32.1406 4.31417 32.1406 4.25966V3.39181C32.1406 3.32263 32.0863 3.26812 32.0173 3.26812H29.8878C29.8189 3.26812 29.7645 3.32263 29.7645 3.39181V15.7934C29.7645 15.8626 29.8189 15.9171 29.8878 15.9171H32.0737C32.1427 15.9171 32.197 15.8626 32.197 15.7934V11.7267C32.197 11.6721 32.2618 11.6449 32.3016 11.6805C33.0204 12.3513 33.9713 12.7433 35.06 12.7433C37.6242 12.7433 39.6241 10.6617 39.6241 7.95751C39.6241 5.2533 37.622 3.17169 35.06 3.17169L35.0579 3.17379ZM34.6463 10.6429C33.1876 10.6429 32.0821 9.47941 32.0821 7.94074C32.0821 6.40206 33.1855 5.23863 34.6463 5.23863C36.107 5.23863 37.2083 6.38319 37.2083 7.94074C37.2083 9.49827 36.1217 10.6429 34.6441 10.6429H34.6463Z" fill="white"/>
</g>
<defs>
<clipPath id="clip0_11597_207917">
<rect width="66.5" height="16" fill="white"/>
</clipPath>
</defs>
</svg>
