<svg width="101" height="25" viewBox="0 0 101 25" fill="none" xmlns="http://www.w3.org/2000/svg">
<g clip-path="url(#clip0_11976_111923)">
<mask id="mask0_11976_111923" style="mask-type:luminance" maskUnits="userSpaceOnUse" x="0" y="0" width="101" height="25">
<path d="M100.391 0H0V24.6484H100.391V0Z" fill="white"/>
</mask>
<g mask="url(#mask0_11976_111923)">
<path d="M26.3672 8.75H36.5234V10.6641H32.5391V21.3281H30.3516V10.625H26.3672V8.75ZM36.0938 12.1875H37.9687V13.9453H38.0078C38.0859 13.7109 38.2031 13.4766 38.3594 13.2422C38.5156 13.0078 38.75 12.7734 38.9844 12.6172C39.2188 12.4219 39.4922 12.2656 39.7656 12.1484C40.0391 12.0313 40.3516 11.9531 40.6641 11.9531C40.8984 11.9531 41.0547 11.9531 41.1328 11.9531C41.2109 11.9531 41.3281 11.9922 41.4062 11.9922V13.9062C41.25 13.8672 41.1328 13.8672 40.9766 13.8281C40.8203 13.8281 40.7031 13.7891 40.5469 13.7891C40.1953 13.7891 39.8828 13.8672 39.6094 13.9844C39.2969 14.1016 39.0625 14.3359 38.8281 14.5703C38.5938 14.8437 38.4375 15.1562 38.2812 15.5469C38.1641 15.9375 38.0859 16.3672 38.0859 16.875V21.2109H36.0938V12.1875ZM50.625 21.2891H48.6719V20.0391H48.6328C48.3984 20.5078 48.0078 20.8594 47.5391 21.1328C47.0703 21.4062 46.5625 21.5625 46.0547 21.5625C44.8438 21.5625 43.9844 21.2891 43.4766 20.6641C42.9297 20.0781 42.6953 19.1797 42.6953 17.9688V12.1875H44.6875V17.7734C44.6875 18.5547 44.8437 19.1406 45.1562 19.4531C45.4687 19.7656 45.8984 19.9609 46.4453 19.9609C46.875 19.9609 47.2266 19.8828 47.5 19.7656C47.7734 19.6484 48.0078 19.4531 48.1641 19.2578C48.3594 19.0625 48.4766 18.7891 48.5547 18.4766C48.6328 18.1641 48.6719 17.8516 48.6719 17.5V12.2266H50.6641V21.2891H50.625ZM54.0625 18.3594C54.1406 18.9453 54.3359 19.3359 54.7266 19.6094C55.1172 19.8438 55.5859 19.9609 56.1328 19.9609C56.3281 19.9609 56.5234 19.9609 56.7578 19.9219C56.9922 19.8828 57.2266 19.8437 57.4219 19.7656C57.6172 19.6875 57.8125 19.5703 57.9297 19.4141C58.0469 19.2578 58.125 19.0625 58.125 18.7891C58.125 18.5156 58.0078 18.3203 57.8516 18.1641C57.6563 18.0078 57.4609 17.8906 57.1875 17.7734C56.9141 17.6953 56.6016 17.5781 56.25 17.5C55.8984 17.4219 55.5469 17.3438 55.1953 17.2656C54.8047 17.1875 54.4531 17.0703 54.1016 16.9531C53.75 16.8359 53.4375 16.6797 53.1641 16.4844C52.8906 16.2891 52.6562 16.0156 52.5 15.7031C52.3437 15.3906 52.2656 15 52.2656 14.5703C52.2656 14.0625 52.3828 13.6719 52.6172 13.3203C52.8516 12.9687 53.1641 12.7344 53.5156 12.5C53.9062 12.3047 54.2969 12.1484 54.7656 12.0703C55.2344 11.9922 55.6641 11.9531 56.0547 11.9531C56.5234 11.9531 56.9922 11.9922 57.3828 12.1094C57.8125 12.1875 58.2031 12.3828 58.5547 12.5781C58.9062 12.8125 59.1797 13.0859 59.4141 13.4375C59.6484 13.7891 59.8047 14.2188 59.8437 14.7266H57.7344C57.6563 14.2578 57.4219 13.9063 57.0703 13.75C56.7188 13.5938 56.3281 13.5156 55.8984 13.5156C55.7422 13.5156 55.5859 13.5156 55.3906 13.5547C55.1953 13.5938 55 13.6328 54.8437 13.6719C54.6875 13.75 54.5313 13.8281 54.4141 13.9453C54.2969 14.0625 54.2188 14.2188 54.2188 14.4141C54.2188 14.6484 54.2969 14.8438 54.4922 15C54.6484 15.1563 54.8828 15.2734 55.1562 15.3906C55.4297 15.4688 55.7422 15.5859 56.0938 15.6641C56.4453 15.7422 56.7969 15.8203 57.1875 15.8984C57.5391 15.9766 57.8906 16.0938 58.2422 16.2109C58.5938 16.3281 58.9063 16.4844 59.1797 16.6797C59.4531 16.875 59.6875 17.1484 59.8437 17.4219C60 17.6953 60.1172 18.0859 60.1172 18.5547C60.1172 19.1016 60 19.5313 59.7266 19.9219C59.4922 20.3125 59.1406 20.5859 58.7891 20.8203C58.3984 21.0547 57.9688 21.2109 57.4609 21.3281C56.9922 21.4453 56.5234 21.4844 56.0156 21.4844C55.4297 21.4844 54.9219 21.4062 54.4141 21.2891C53.9453 21.1719 53.5156 20.9766 53.1641 20.7031C52.8125 20.4297 52.5391 20.1172 52.3047 19.7266C52.1094 19.3359 51.9922 18.8672 51.9922 18.3203L54.0625 18.3594ZM60.6641 12.1875H62.1875V9.45313H64.1797V12.1875H65.9766V13.6719H64.1797V18.5156C64.1797 18.7109 64.1797 18.9062 64.2187 19.0625C64.2187 19.2187 64.2969 19.3359 64.3359 19.4531C64.4141 19.5703 64.4922 19.6484 64.6094 19.6875C64.7266 19.7266 64.9219 19.7656 65.1563 19.7656C65.3125 19.7656 65.4297 19.7656 65.5859 19.7656C65.7422 19.7656 65.8594 19.7266 66.0156 19.6875V21.25C65.7812 21.2891 65.5859 21.2891 65.3516 21.3281C65.1563 21.3672 64.9219 21.3672 64.6875 21.3672C64.1406 21.3672 63.75 21.3281 63.3984 21.2109C63.0859 21.1328 62.8125 20.9766 62.6562 20.7813C62.4609 20.5859 62.3437 20.3516 62.2656 20.0391C62.1875 19.7656 62.1484 19.4141 62.1484 19.0234V13.7109H60.625L60.6641 12.1875ZM67.4219 12.1875H69.3359V13.4375H69.375C69.6484 12.8906 70.0391 12.5391 70.5469 12.3047C71.0547 12.0703 71.6016 11.9531 72.1875 11.9531C72.8906 11.9531 73.5156 12.0703 74.0625 12.3438C74.6094 12.5781 75.0391 12.9297 75.3906 13.3984C75.7422 13.8281 76.0156 14.375 76.1719 14.9219C76.3672 15.5078 76.4453 16.1328 76.4453 16.7969C76.4453 17.4219 76.3672 18.0078 76.2109 18.5547C76.0547 19.1406 75.8203 19.6484 75.5078 20.0781C75.1953 20.5078 74.7656 20.8594 74.2969 21.1328C73.7891 21.4062 73.2422 21.5234 72.5391 21.5234C72.2656 21.5234 71.9531 21.4844 71.6797 21.4453C71.4063 21.4062 71.0938 21.2891 70.8203 21.1719C70.5469 21.0547 70.3125 20.8984 70.0781 20.7031C69.8437 20.5078 69.6484 20.3125 69.4922 20.0781H69.4531V24.6094H67.4609V12.1875H67.4219ZM74.4141 16.7578C74.4141 16.3672 74.375 15.9375 74.2578 15.5469C74.1406 15.1562 73.9844 14.8047 73.7891 14.5313C73.5937 14.2188 73.3203 13.9844 73.0078 13.8281C72.6953 13.6328 72.3438 13.5547 71.9141 13.5547C71.0547 13.5547 70.4297 13.8281 70 14.4141C69.5703 15 69.375 15.7813 69.375 16.7578C69.375 17.2266 69.4141 17.6563 69.5312 18.0469C69.6484 18.4375 69.8047 18.7891 70.0391 19.0625C70.2734 19.3359 70.5078 19.5703 70.8203 19.7266C71.1328 19.8828 71.4844 19.9609 71.9141 19.9609C72.3828 19.9609 72.7734 19.8828 73.0859 19.6875C73.3984 19.4922 73.6719 19.2578 73.8672 18.9453C74.0625 18.6328 74.2187 18.3203 74.2969 17.9297C74.375 17.5391 74.4141 17.1484 74.4141 16.7578ZM77.9297 8.75H79.9219V10.6641H77.9297V8.75ZM77.9297 12.1875H79.9219V21.2891H77.9297V12.1875ZM81.7187 8.75H83.7109V21.2891H81.7187V8.75ZM89.8828 21.5234C89.1406 21.5234 88.5156 21.4063 87.9297 21.1719C87.3438 20.9375 86.875 20.5859 86.4844 20.1953C86.0937 19.7656 85.7813 19.2578 85.5859 18.6719C85.3906 18.0859 85.2734 17.4219 85.2734 16.7578C85.2734 16.0547 85.3906 15.4297 85.5859 14.8438C85.7813 14.2578 86.0937 13.75 86.4844 13.3203C86.875 12.8906 87.3438 12.5781 87.9297 12.3438C88.5156 12.1094 89.1406 11.9922 89.8828 11.9922C90.625 11.9922 91.25 12.1094 91.8359 12.3438C92.4219 12.5781 92.8906 12.9297 93.2813 13.3203C93.6719 13.75 93.9844 14.2578 94.1797 14.8438C94.375 15.4297 94.4922 16.0547 94.4922 16.7578C94.4922 17.4609 94.375 18.0859 94.1797 18.6719C93.9844 19.2578 93.6719 19.7656 93.2813 20.1953C92.8906 20.625 92.4219 20.9375 91.8359 21.1719C91.25 21.4063 90.625 21.5234 89.8828 21.5234ZM89.8828 19.9609C90.3125 19.9609 90.7031 19.8828 91.0547 19.6875C91.3672 19.4922 91.6406 19.2578 91.875 18.9453C92.0703 18.6328 92.2266 18.2813 92.3437 17.9297C92.4219 17.5391 92.5 17.1484 92.5 16.7578C92.5 16.3672 92.4609 15.9766 92.3437 15.5859C92.2656 15.1953 92.0703 14.8437 91.875 14.5703C91.6797 14.2578 91.4063 14.0234 91.0547 13.8281C90.7422 13.6328 90.3516 13.5547 89.8828 13.5547C89.4531 13.5547 89.0625 13.6328 88.7109 13.8281C88.3984 14.0234 88.125 14.2578 87.8906 14.5703C87.6953 14.8828 87.5391 15.1953 87.4219 15.5859C87.3438 15.9766 87.2656 16.3672 87.2656 16.7578C87.2656 17.1484 87.3047 17.5391 87.4219 17.9297C87.5 18.3203 87.6953 18.6719 87.8906 18.9453C88.0859 19.2578 88.3594 19.4922 88.7109 19.6875C89.0625 19.8828 89.4531 19.9609 89.8828 19.9609ZM95.0391 12.1875H96.5625V9.45313H98.5547V12.1875H100.352V13.6719H98.5547V18.5156C98.5547 18.7109 98.5547 18.9062 98.5937 19.0625C98.5937 19.2187 98.6719 19.3359 98.7109 19.4531C98.7891 19.5703 98.8672 19.6484 98.9844 19.6875C99.1016 19.7266 99.2969 19.7656 99.5313 19.7656C99.6875 19.7656 99.8047 19.7656 99.9609 19.7656C100.117 19.7656 100.234 19.7266 100.391 19.6875V21.25C100.156 21.2891 99.9609 21.2891 99.7266 21.3281C99.5313 21.3672 99.2969 21.3672 99.0625 21.3672C98.5156 21.3672 98.125 21.3281 97.7734 21.2109C97.4609 21.1328 97.1875 20.9766 97.0312 20.7813C96.8359 20.5859 96.7187 20.3516 96.6406 20.0391C96.5625 19.7656 96.5234 19.4141 96.5234 19.0234V13.7109H95L95.0391 12.1875Z" fill="white"/>
<path d="M24.0234 8.75H14.8438L12.0312 0L9.17969 8.75L0 8.71094L7.42188 14.1016L4.57031 22.8125L11.9922 17.4219L19.4141 22.8125L16.5625 14.1016L24.0234 8.75Z" fill="#00B59C"/>
<path d="M17.2656 16.0938L16.6406 14.1016L12.0312 17.4219L17.2656 16.0938Z" fill="#008F80"/>
</g>
</g>
<defs>
<clipPath id="clip0_11976_111923">
<rect width="100.781" height="25" fill="white"/>
</clipPath>
</defs>
</svg>
