<svg width="203" height="48" viewBox="0 0 203 48" fill="none" xmlns="http://www.w3.org/2000/svg">
<g clip-path="url(#clip0_12862_77603)">
<g clip-path="url(#clip1_12862_77603)">
<path d="M25.6779 21.903L14.8197 25.8641C14.6332 25.9107 14.54 26.0971 14.54 26.2835V33.367C14.54 33.6933 14.8663 33.8797 15.1459 33.7865L25.1187 30.1515C25.8177 29.8719 26.3303 29.2195 26.3303 28.4738V22.3224C26.2371 21.9962 25.9575 21.7632 25.6779 21.903Z" fill="white"/>
<path d="M26.2369 36.4427L12.7223 41.3825C10.066 42.3612 7.2699 40.4039 7.2699 37.5612V0H0V48H26.2369V36.4427Z" fill="white"/>
<path d="M14.4932 0V16.6369C14.4932 17.8951 15.7514 18.7806 16.9165 18.3146L28.0543 14.2602C30.7106 13.2816 33.5068 15.2388 33.5068 18.0816V47.9534H48V0H14.4932Z" fill="white"/>
<path d="M67.293 37.002C67.8988 36.8622 69.4833 36.6758 70.7415 36.6758V13.2816C69.4833 13.2816 67.8988 13.0486 67.293 12.9554V10.4855H78.8969C84.3027 10.4855 88.4968 12.3962 88.4968 17.6156C88.4968 21.1107 86.4464 23.3476 83.2774 24.1864V24.2796C86.8658 24.8855 89.7551 27.2622 89.7551 31.2699C89.7551 37.0952 85.2813 39.4719 78.8037 39.4719H67.3396V37.002H67.293ZM74.6095 22.9748H78.4308C82.6716 22.9748 84.4891 21.2971 84.4891 18.035C84.4891 14.8661 82.392 13.4214 78.524 13.4214H74.6095V22.9748ZM74.6095 36.4428H78.6172C83.4638 36.4428 85.6541 34.8117 85.6541 31.2233C85.6541 27.8214 83.6503 25.7709 78.8037 25.7709H74.5629V36.4428H74.6095Z" fill="white"/>
<path d="M92.5977 29.266C92.5977 22.3223 96.6986 17.9883 102.524 17.9883C107.65 17.9883 110.679 21.53 110.679 27.0291C110.679 27.5417 110.633 28.6135 110.586 29.0795H96.5588C96.6054 34.0193 98.9355 37.0019 103.363 37.0019C105.693 37.0019 107.743 35.93 108.722 35.231L110.073 37.8407C109.002 38.5863 106.578 39.9844 102.71 39.9844C96.1394 39.9844 92.5977 35.5106 92.5977 29.266ZM106.811 26.4698C106.811 23.3941 105.6 20.831 102.151 20.831C99.0753 20.831 97.0248 23.0679 96.652 26.4698H106.811Z" fill="white"/>
<path d="M112.776 37.0019C113.382 36.8621 114.92 36.6757 116.178 36.6757V21.2038C114.78 21.064 113.429 21.0174 112.776 21.0174V18.5941C113.941 18.4077 116.924 18.2679 119.953 18.2679L119.767 22.0893H119.86C120.652 20.2718 122.563 17.9883 125.359 17.9883C126.71 17.9883 127.409 18.3145 127.689 18.4077L126.757 21.8562C126.477 21.7164 125.918 21.4834 124.846 21.4834C122.004 21.4834 120.139 24.5592 119.813 25.2582V36.6291C121.072 36.6291 123.029 36.8621 123.635 36.9553V39.4252H112.776V37.0019Z" fill="white"/>
<path d="M127.223 37.0019C127.829 36.8621 129.32 36.6757 130.579 36.6757V11.0446C129.181 10.9048 127.829 10.8582 127.177 10.8582V8.34172C128.388 8.20191 131.371 8.0155 134.447 8.0155L134.214 11.464V36.6757C135.425 36.6757 136.544 36.9087 137.196 37.0019V39.4718H127.223V37.0019ZM133.981 28.9864L141.53 21.2971C140.505 21.2039 139.386 21.064 138.967 20.9708V18.5475H148.893V20.9708C148.334 21.1106 146.936 21.2971 145.678 21.2971L134.167 32.6679L133.981 28.9864Z" fill="white"/>
<path d="M151.876 37.0019C152.482 36.8621 153.973 36.6757 155.231 36.6757V11.0446C153.833 10.9048 152.482 10.8582 151.829 10.8582V8.34172C153.041 8.20191 156.023 8.0155 159.099 8.0155L158.866 11.464V36.6757C160.124 36.6757 161.616 36.9087 162.221 37.0019V39.4718H151.876V37.0019Z" fill="white"/>
<path d="M162.967 29.266C162.967 22.3223 167.068 17.9883 172.893 17.9883C178.019 17.9883 181.048 21.53 181.048 27.0291C181.048 27.5417 181.002 28.6135 180.955 29.0795H166.928C166.975 34.0193 169.305 37.0019 173.732 37.0019C176.062 37.0019 178.112 35.93 179.091 35.231L180.443 37.8407C179.371 38.5863 176.947 39.9844 173.079 39.9844C166.555 39.9844 162.967 35.5106 162.967 29.266ZM177.18 26.4698C177.18 23.3941 175.969 20.831 172.52 20.831C169.444 20.831 167.394 23.0679 167.021 26.4698H177.18Z" fill="white"/>
<path d="M183.285 29.266C183.285 22.3223 187.386 17.9883 193.211 17.9883C198.338 17.9883 201.367 21.53 201.367 27.0291C201.367 27.5417 201.32 28.6135 201.274 29.0795H187.246C187.293 34.0193 189.623 37.0019 194.05 37.0019C196.38 37.0019 198.431 35.93 199.409 35.231L200.761 37.8407C199.689 38.5863 197.266 39.9844 193.398 39.9844C186.874 39.9844 183.285 35.5106 183.285 29.266ZM197.545 26.4698C197.545 23.3941 196.334 20.831 192.885 20.831C189.809 20.831 187.759 23.0679 187.386 26.4698H197.545Z" fill="white"/>
<path d="M139.573 26.7029L143.441 32.7611C144.28 34.1126 145.212 35.3242 145.957 36.0233C146.889 36.8621 147.868 36.8155 148.847 36.8155C149.126 36.8155 149.546 36.8155 149.919 36.7223L150.105 39.3786C149.546 39.5184 148.614 39.6582 147.961 39.6582C145.911 39.6582 144.559 39.1456 143.487 38.2136C142.695 37.5145 141.81 36.2563 141.064 35.1378L137.01 28.7534L139.573 26.7029Z" fill="white"/>
</g>
</g>
<defs>
<clipPath id="clip0_12862_77603">
<rect width="202.5" height="48" fill="white"/>
</clipPath>
<clipPath id="clip1_12862_77603">
<rect width="202.5" height="48" fill="white"/>
</clipPath>
</defs>
</svg>
