<svg width="222" height="48" viewBox="0 0 222 48" fill="none" xmlns="http://www.w3.org/2000/svg">
<g clip-path="url(#clip0_12862_77600)">
<g clip-path="url(#clip1_12862_77600)">
<path d="M0 16.2952H7.437V19.4438H7.585C8.954 17.1102 11.433 15.5914 14.319 15.5914C17.205 15.5914 19.832 16.5545 21.201 19.4438C22.977 16.962 25.308 15.5914 28.49 15.5914C35.927 15.5914 36.741 21.2219 36.741 25.6299V39.669H29.045V25.8892C29.045 23.4074 27.824 21.8886 25.9 21.8886C22.607 21.8886 22.311 24.3705 22.311 28.2229V39.632H14.541V26.2967C14.541 23.5556 13.727 21.8886 11.655 21.8886C8.917 21.8886 7.659 23.4074 7.659 28.2229V39.632H0V16.2952Z" fill="white"/>
<path d="M61.0129 39.706H53.5759V36.5574H53.4279C52.0589 38.8911 49.0249 40.4098 46.2869 40.4098C39.5529 40.4098 37.6289 36.5574 37.6289 30.3713V16.3322H45.3249V29.9268C45.3249 33.0754 46.6939 34.0385 49.1729 34.0385C50.8379 34.0385 53.2799 32.9272 53.2799 28.8155V16.2952H60.9759C61.0129 16.2952 61.0129 39.706 61.0129 39.706Z" fill="white"/>
<path d="M68.7091 31.9642C68.7091 33.1866 69.2641 34.0386 69.9301 34.5942C70.6331 35.1498 71.7061 35.4091 72.8161 35.4091C74.3331 35.4091 76.4051 34.7053 76.4051 32.9273C76.4051 31.1493 74.0741 30.7418 72.7051 30.4455C67.8951 29.223 61.8641 29.0749 61.8641 22.7406C61.8641 17.1102 67.8951 15.5914 72.5941 15.5914C77.6631 15.5914 83.0281 17.1102 83.3241 23.1481H76.3311C76.3311 22.185 75.9241 21.4812 75.3691 21.0737C74.6661 20.6662 73.8521 20.5181 72.8901 20.5181C71.6691 20.5181 69.5971 20.6662 69.5971 22.2961C69.5971 24.4816 74.6661 24.9261 78.2551 25.7411C82.9171 26.7042 84.1751 30.1491 84.1751 32.0753C84.1751 38.4096 78.2551 40.484 72.8901 40.484C67.3771 40.484 61.6051 38.7059 61.4941 32.0753H68.7831V31.9642H68.7091Z" fill="white"/>
<path d="M92.3523 13.4059H84.6562V7.47913H92.3523V13.4059ZM84.6562 16.2952H92.3523V39.7061H84.6562V16.2952Z" fill="white"/>
<path d="M109.52 24.8149C109.52 22.8887 107.744 21.37 105.82 21.37C101.565 21.37 100.862 25.0742 100.862 28.2599C100.862 31.2974 102.231 34.446 105.413 34.446C108.04 34.446 109.409 32.9272 109.816 30.4454H117.253C116.55 36.7796 111.74 40.3357 105.413 40.3357C98.42 40.3357 93.166 35.5202 93.166 28.371C93.166 20.9255 97.828 15.5543 105.413 15.5543C111.185 15.5543 116.402 18.5918 116.957 24.7779C116.957 24.8149 109.52 24.8149 109.52 24.8149Z" fill="white"/>
<path d="M117.66 16.4434H125.097V20.5551H125.245C126.355 17.5176 128.945 15.9989 132.238 15.9989C132.793 15.9989 133.459 15.9989 134.014 16.1471V23.1481C133.052 22.8888 132.09 22.7406 131.128 22.7406C127.28 22.7406 125.356 25.3706 125.356 28.26V39.8172H117.66V16.4434Z" fill="white"/>
<path d="M134.014 23.5926C134.162 20.5551 135.531 18.5178 137.714 17.2583C139.786 16.0359 142.524 15.5914 145.151 15.5914C150.664 15.5914 155.992 16.8138 155.992 23.4444V33.6311C155.992 35.5573 155.992 37.7428 156.954 39.669H149.258C148.999 38.9652 148.851 38.2984 148.851 37.4835C146.927 39.5579 143.893 40.3728 141.155 40.3728C136.752 40.3728 133.2 38.1873 133.2 33.3718C133.2 25.8151 141.451 26.3708 146.816 25.2595C148.185 25.0002 148.888 24.5557 148.888 23.074C148.888 21.296 146.816 20.5922 145.188 20.5922C143.116 20.5922 141.747 21.5553 141.34 23.4815H134.014V23.5926ZM143.893 35.8536C147.593 35.8536 148.703 33.7793 148.555 28.9638C147.445 29.6676 145.521 29.7787 143.893 30.1862C142.228 30.5936 140.748 31.2974 140.748 33.2236C140.748 35.0017 142.265 35.8536 143.893 35.8536Z" fill="white"/>
<path d="M180.745 39.8172H173.456V37.0761H173.308C171.791 39.2616 169.608 40.521 166.833 40.521C159.544 40.521 156.399 34.1868 156.399 27.5932C156.399 21.5553 159.692 15.7396 166.278 15.7396C169.164 15.7396 171.347 16.8509 172.864 18.8882H173.012V9.2572H180.708V39.8172H180.745ZM164.095 27.8525C164.095 31.0011 165.316 34.5942 168.757 34.5942C172.457 34.5942 173.308 31.0011 173.308 28.0007C173.308 24.5557 172.087 21.5183 168.757 21.5183C165.205 21.6664 164.095 24.9632 164.095 27.8525Z" fill="white"/>
<path d="M181.855 23.5926C182.003 20.5551 183.372 18.5178 185.555 17.2583C187.627 16.0359 190.365 15.5914 192.992 15.5914C198.505 15.5914 203.833 16.8138 203.833 23.4444V33.6311C203.833 35.5573 203.833 37.7428 204.795 39.669H197.099C196.84 38.9652 196.692 38.2984 196.692 37.4835C194.768 39.5579 191.734 40.3728 188.996 40.3728C184.593 40.3728 181.041 38.1873 181.041 33.3718C181.041 25.8151 189.292 26.3708 194.657 25.2595C196.026 25.0002 196.729 24.5557 196.729 23.074C196.729 21.296 194.657 20.5922 193.029 20.5922C190.957 20.5922 189.588 21.5553 189.181 23.4815H181.892V23.5926H181.855ZM191.734 35.8536C195.434 35.8536 196.544 33.7793 196.396 28.9638C195.286 29.6676 193.362 29.7787 191.734 30.1862C190.069 30.5936 188.589 31.2974 188.589 33.2236C188.589 35.0017 189.958 35.8536 191.734 35.8536Z" fill="white"/>
<path d="M204.943 16.4434H212.38V20.5551H212.528C213.638 17.5176 216.228 15.9989 219.521 15.9989C220.076 15.9989 221.445 15.9989 222 16.1471V23.1481C221.038 22.8888 219.373 22.7406 218.3 22.7406C214.452 22.7406 212.528 25.3706 212.528 28.26V39.8172H204.832V16.4064H204.943V16.4434Z" fill="white"/>
<path d="M221.815 32.2605H214.267V39.8172H221.815V32.2605Z" fill="white"/>
</g>
</g>
<defs>
<clipPath id="clip0_12862_77600">
<rect width="222" height="48" fill="white"/>
</clipPath>
<clipPath id="clip1_12862_77600">
<rect width="222" height="33.0419" fill="white" transform="translate(0 7.47913)"/>
</clipPath>
</defs>
</svg>
