<svg width="288" height="48" viewBox="0 0 288 48" fill="none" xmlns="http://www.w3.org/2000/svg">
<g clip-path="url(#clip0_12862_77604)">
<path d="M128.654 6.26756C130.767 5.95352 133.737 6.18191 135.793 6.83853C136.521 7.08119 137.163 7.26676 137.235 7.26676C137.306 7.26676 137.72 7.03837 138.148 6.76716C139.633 5.81078 139.976 6.13909 140.176 8.73701C140.376 11.5205 140.09 15.76 139.619 16.7877C139.405 17.2445 139.105 17.4015 138.348 17.4015C137.763 17.4015 137.635 17.2159 137.52 16.2596C137.049 12.4341 135.993 10.4927 134.051 9.87895C132.995 9.55064 131.124 9.60774 130.082 9.99315C125.399 11.7346 122.016 18.8004 121.973 26.8939C121.959 30.9906 122.787 32.8463 125.142 33.9454C126.356 34.5021 128.14 34.5449 129.654 34.031C130.282 33.8312 131.21 33.3744 131.724 33.0318C132.837 32.2896 134.365 30.748 135.008 29.7059C135.536 28.8352 135.821 28.6496 136.421 28.7638C138.077 29.0921 137.649 31.633 135.522 34.131C133.066 37.0001 129.682 38.5845 125.585 38.7701C122.872 38.8986 120.873 38.4989 118.846 37.4283C116.105 35.9866 113.949 32.675 113.478 29.1778L113.35 28.3213L113.264 27.3221L113.292 26.3943C113.407 21.3555 115.263 16.4451 118.618 12.3056C121.202 9.12242 125.028 6.82426 128.654 6.26756ZM148.571 8.63772C149.413 8.25231 149.813 8.19521 150.127 8.39505C150.355 8.5378 150.17 9.60837 148.842 16.0889C148.299 18.7439 148.171 19.6146 148.285 19.8288C148.371 19.9858 148.485 20.1142 148.556 20.1142C148.613 20.1142 149.085 19.843 149.584 19.5147C150.826 18.7154 152.639 17.8732 153.582 17.6733C153.996 17.5877 154.738 17.5449 155.252 17.5877C157.522 17.8018 158.921 19.5147 158.893 22.0413C158.878 22.6265 158.464 25.1816 157.865 28.2934C157.308 31.1768 156.851 33.8176 156.851 34.1601C156.851 34.8168 157.265 35.5305 157.651 35.5305C157.765 35.5305 158.022 35.6875 158.207 35.8731C158.493 36.1585 158.55 36.3156 158.464 36.701C158.279 37.7144 158.422 37.6859 153.725 37.6431C149.013 37.6002 149.284 37.6573 149.484 36.601C149.556 36.2442 149.756 36.0015 150.284 35.6161C150.669 35.3449 151.083 34.931 151.183 34.7168C151.497 34.1173 152.497 29.2641 153.068 25.5527C153.51 22.755 152.968 21.8272 150.898 21.8272C150.127 21.8272 149.756 21.9128 149.07 22.2411C148.057 22.7264 147.657 23.1261 147.357 23.954C147.203 24.3907 146.795 26.3256 146.398 28.3845L146.25 29.1596C145.86 31.2279 145.513 33.2483 145.472 33.8461C145.401 34.8596 145.415 34.9595 145.744 35.2735C145.929 35.4448 146.301 35.716 146.558 35.8588C147 36.0872 147.029 36.1443 146.957 36.6867C146.833 37.5804 147 37.6648 143.62 37.6716L137.149 37.6719L137.15 37.0059C137.159 36.4627 137.274 36.3531 138.491 35.4877C139.862 34.5027 139.833 34.5598 141.418 26.1808C141.889 23.6971 143.517 14.8899 143.645 14.1904C143.688 13.8907 143.617 13.6194 143.388 13.2769C142.803 12.3633 142.717 12.192 142.717 11.7495C142.717 11.4926 142.831 11.1643 142.974 11.0072C143.103 10.836 144.216 10.3364 145.501 9.85103C146.757 9.37998 148.142 8.83756 148.571 8.63772ZM282.116 18.9866C283.787 20.8422 284.544 23.7685 284.044 26.4806C283.958 26.9374 283.83 27.4084 283.744 27.4941C283.636 27.6289 282.395 27.6746 278.421 27.6792L276.961 27.68C272.988 27.6846 271.761 27.7296 271.68 27.8509C271.623 27.9508 271.58 28.7074 271.594 29.5353C271.637 32.8041 272.822 34.4456 275.278 34.6455C276.863 34.7597 278.433 34.1316 280.318 32.59C280.732 32.2474 281.217 31.9619 281.36 31.9619C281.731 31.9619 282.345 32.59 282.345 32.9611C282.345 34.2172 280.289 36.1728 277.948 37.1577C275.264 38.2854 271.994 38.2854 269.638 37.1435C267.897 36.3013 266.455 34.3457 265.998 32.1617C264.713 26.1237 269.467 18.4442 275.278 17.188C277.848 16.617 280.646 17.3593 282.116 18.9866ZM252.221 17.9017C254.134 18.8867 255.39 21.4846 254.948 23.5543C254.719 24.6392 254.476 24.8248 253.192 24.9247C251.735 25.0246 251.678 24.9675 251.521 23.1404C251.378 21.5131 251.136 20.9564 250.365 20.4426C249.308 19.7288 247.552 20.2427 246.496 21.5845C245.753 22.5266 244.868 24.3537 244.497 25.7669C244.254 26.6519 244.183 27.337 244.169 28.9643C244.154 30.9484 244.169 31.0626 244.554 31.8905C245.039 32.9326 245.411 33.3465 246.153 33.6891C247.452 34.2886 249.151 33.8889 250.722 32.6042C251.764 31.7478 251.75 31.7478 252.321 31.9762C252.82 32.1617 252.935 32.333 252.935 32.9468C252.935 33.6748 252.449 34.5313 251.521 35.4877C249.979 37.0293 248.123 37.7858 245.511 37.9143C242.955 38.0427 241.385 37.5289 239.943 36.1157C237.715 33.9032 237.187 29.8779 238.586 25.6812C239 24.4536 240.071 22.5837 241.085 21.3133C242.412 19.6575 245.039 17.9731 247.038 17.4878C248.737 17.0738 250.936 17.2594 252.221 17.9017ZM234.874 18.0587C236.031 17.5734 236.645 17.7162 236.659 18.4727C236.659 18.6154 236.53 19.3577 236.373 20.1142C236.117 21.3413 235.62 23.888 235.12 26.4938L234.984 27.205C234.304 30.7588 233.661 34.2093 233.661 34.36C233.661 34.8168 234.16 35.3021 234.931 35.5876C235.631 35.8302 235.66 35.8731 235.66 36.3727C235.66 36.6581 235.56 37.0435 235.431 37.2148L235.217 37.5289L228.179 37.529C224.74 37.523 224.96 37.4392 225.18 36.5582C225.28 36.13 225.48 35.9159 226.351 35.3449C227.122 34.831 227.465 34.517 227.622 34.1316C227.907 33.4607 229.663 24.1539 229.663 23.3402C229.663 22.6836 229.292 22.2126 228.421 21.7701C227.893 21.4988 227.822 21.1563 228.207 20.7138C228.35 20.5567 229.635 20 231.234 19.4291C232.761 18.8724 234.403 18.2443 234.874 18.0587ZM266.098 7.28166C266.341 7.41013 266.369 7.52432 266.283 8.09529C266.147 9.13597 265.021 15.3057 263.821 21.7422L263.664 22.5829C263.533 23.284 263.402 23.9858 263.271 24.682C261.258 35.3164 261.301 34.6169 262.571 35.1879C263.571 35.6447 263.685 35.816 263.571 36.5297C263.399 37.5717 263.614 37.5431 258.174 37.5003L253.306 37.4575L253.092 37.0864C252.778 36.5297 252.992 36.0158 253.748 35.4877C255.576 34.2315 255.861 33.7747 256.347 31.2482C256.904 28.3077 259.245 16.4458 259.588 14.7899C260.116 12.2348 260.159 12.4061 258.517 11.15C258.246 10.9359 258.203 10.8074 258.288 10.4363C258.417 9.83676 258.688 9.66546 260.801 8.90893C261.772 8.56634 263.242 8.02392 264.071 7.70989C265.769 7.05327 265.698 7.06754 266.098 7.28166ZM275.663 20.0429C274.85 20.3997 273.836 21.5988 273.151 23.0119C272.794 23.7399 272.48 24.5107 272.465 24.7534L272.422 25.1816L275.463 25.2244C278.462 25.253 278.504 25.253 278.819 24.939C279.018 24.7391 279.218 24.2681 279.332 23.7399C279.49 22.9977 279.49 22.755 279.29 21.9842C279.018 20.9422 278.647 20.3426 278.062 20.0429C277.548 19.7717 276.277 19.7717 275.663 20.0429ZM236.159 9.57982C237.073 9.60837 237.387 9.69401 237.773 9.95095C239.557 11.2356 238.658 14.2047 236.059 15.5607C235.16 16.0461 233.761 16.0318 233.047 15.5465C232.319 15.0469 231.948 14.3189 231.948 13.3911C231.962 11.8494 232.704 10.6932 234.132 9.9795C234.946 9.56554 235.117 9.537 236.159 9.57982ZM77.7002 7.83836C77.8715 7.83836 78.0856 7.93828 78.1856 8.06674L78.2081 8.0907C78.2178 8.10071 78.227 8.11022 78.2355 8.12066L78.2477 8.13718C78.271 8.17231 78.2867 8.22212 78.2884 8.32483L78.288 8.38078C78.2705 9.04856 77.795 11.5097 75.7728 22.1269C74.6592 27.908 73.7598 32.9611 73.7598 33.3608C73.7598 34.0602 73.7883 34.103 74.4022 34.5313C75.4159 35.2307 75.5444 35.5019 75.3159 36.5439C75.216 37.015 75.0589 37.4575 74.9733 37.5289C74.8448 37.6431 71.2899 37.9999 68.306 38.1998C66.7641 38.2997 66.6213 38.214 66.6213 37.1577C66.6213 36.2727 66.4357 36.1728 65.8932 36.7581C64.6797 38.057 62.0099 38.7707 59.9255 38.3282C56.6989 37.6573 54.8572 34.8881 54.8572 30.7486C54.8572 28.1649 55.4854 25.5956 56.6561 23.3831C58.6977 19.5147 61.3674 17.8161 65.4221 17.8161C67.0639 17.8161 68.1489 18.0587 69.1626 18.644C69.5052 18.8296 69.8051 18.9723 69.8336 18.9438C69.8972 18.8731 70.0554 18.1512 70.1989 17.3729L70.2637 17.0118L70.3381 16.5689C70.419 16.0667 70.4761 15.6321 70.4761 15.4466C70.4761 14.8899 70.4047 14.7328 70.0049 14.3474C69.748 14.1048 69.1912 13.7907 68.7914 13.6337C68.1918 13.4196 68.049 13.3197 68.049 13.0485C68.049 12.3633 68.8342 11.9065 75.0447 8.96602C76.3439 8.35223 77.5431 7.83836 77.7002 7.83836ZM97.7449 17.7304C98.7015 17.4307 99.0441 17.4021 100.957 17.445C102.942 17.4878 103.184 17.5306 104.269 17.9303C106.511 18.7867 107.782 19.9001 108.738 21.8985C110.037 24.5964 110.037 27.6796 108.724 30.8485C107.853 32.9611 106.025 35.1736 104.098 36.4583C101.942 37.9 100.258 38.3711 97.3023 38.3853C94.4612 38.3853 92.6909 37.7573 91.1062 36.1728C88.7933 33.8604 88.2793 29.9921 89.7499 25.9524C91.2632 21.7986 94.1329 18.8438 97.7449 17.7304ZM86.7112 17.8743C86.7683 17.8743 87.1515 17.9446 87.3371 18.1016L87.4165 18.1748C87.5616 18.3323 87.6238 18.5524 87.5779 18.7662L87.2086 20.4854C86.9446 21.7266 86.6377 23.2526 86.3331 24.8209L86.1928 25.5469C85.4938 29.1832 84.8434 32.8469 84.7958 33.5606C84.6958 34.9738 84.8672 35.402 85.7666 35.9587C86.3091 36.287 86.4662 36.4726 86.4662 36.7438C86.4662 37.3576 86.0807 38.0856 85.7238 38.1712C85.5382 38.214 83.3681 38.2283 80.8982 38.214L76.401 38.1712L76.4295 37.3861C76.4581 36.7152 76.5295 36.5582 76.8578 36.287C77.0863 36.1014 77.329 35.9587 77.4146 35.9587C77.7573 35.9587 78.5996 34.8168 78.8138 34.0745C78.9313 33.683 79.3083 31.8119 79.6967 29.788L79.8424 29.0245C80.2539 26.8556 80.6432 24.7016 80.7126 24.1539C80.784 23.4687 80.7554 23.3831 80.3842 23.0119C80.1558 22.7835 79.7572 22.6915 79.3304 22.1389L79.2821 22.0585C79.2187 21.9179 79.2409 21.7496 79.3463 21.6294L79.7807 21.134L79.7896 21.1101C79.9131 20.893 81.2744 20.2217 83.8735 19.0963C85.3583 18.4397 86.6684 17.8885 86.7112 17.8743ZM101.957 20.6709C100.829 20.0143 99.401 20.3141 98.3731 21.4275C96.5314 23.3688 95.1751 27.6368 95.1751 31.4623C95.1751 33.1895 95.3036 33.7747 95.8604 34.5027C96.3886 35.2307 96.9882 35.5305 97.8734 35.5305C98.887 35.5305 99.7151 35.1308 100.472 34.2743C101.671 32.9183 102.471 30.72 103.084 27.18C103.341 25.724 103.384 23.1547 103.17 22.3839C102.97 21.6701 102.471 20.9707 101.957 20.6709ZM65.7647 21.0992C63.4661 21.7986 61.8814 24.7534 61.4816 29.0499C61.2247 31.7763 61.6672 33.3037 62.9093 33.9318C63.252 34.103 63.7945 34.2458 64.1229 34.2458C64.8367 34.2458 65.9646 33.7319 66.6499 33.0896C67.2352 32.5329 67.3494 32.176 67.8348 29.5353C67.9173 29.0975 68.0252 28.5188 68.1372 27.9144L68.3055 27.0029C68.3885 26.5519 68.4678 26.119 68.5344 25.7526C68.8628 24.0397 68.8913 23.6543 68.7486 22.9976C68.563 22.0841 67.792 21.2134 67.0496 21.0706C66.4928 20.9564 66.2358 20.9564 65.7647 21.0992ZM88.4649 9.93668C89.0503 10.6076 89.1788 10.9644 89.1788 12.035C89.1788 14.7899 86.0379 16.9311 83.4395 15.9319C82.6257 15.6178 81.8119 14.7328 81.5978 13.9192C81.0695 11.9636 82.5543 9.66546 84.7244 9.10877C86.1806 8.72336 87.7083 9.06594 88.4649 9.93668ZM16.2953 8.9803C10.0849 9.05167 9.84218 9.06594 8.87135 9.39425C6.45856 10.1793 4.63112 11.6924 3.68884 13.648C3.17487 14.7186 3.1606 14.8185 3.1606 16.3316C3.1606 17.7875 3.18915 17.9588 3.57463 18.7296C4.43124 20.3997 5.8732 21.2276 7.7292 21.0849C9.0855 20.9707 10.0278 20.3855 10.5703 19.3006C11.0843 18.2871 10.6845 17.2451 9.69941 17.0453C8.21461 16.717 7.65781 16.2459 7.65781 15.3324C7.65781 13.491 10.0421 12.2206 13.5113 12.2063C15.3816 12.2063 16.4809 12.4204 16.9235 12.8915L17.2233 13.2055L16.8093 14.4188C16.5951 15.0754 16.1811 16.1174 15.8956 16.7312C14.3822 20 7.47221 32.2902 6.07308 34.1887C5.31641 35.2164 4.83099 35.5876 3.07494 36.4726C1.81857 37.1006 1.50448 37.3148 1.4331 37.6288C1.21894 38.471 1.07617 38.4567 7.37228 38.4567H13.1116L13.3828 38.1141C13.5684 37.8857 13.6541 37.6002 13.6255 37.2577C13.5827 36.7866 13.5399 36.7581 12.8689 36.601C11.2128 36.2299 10.9129 35.6304 11.4983 33.9175C11.8552 32.8897 13.0259 30.6201 13.4685 30.092L13.8254 29.678H22.0775L22.3202 30.0491C22.6057 30.4916 22.8199 33.8747 22.62 34.674C22.4344 35.3592 21.9204 35.8588 20.8782 36.3727C19.9217 36.8437 19.5933 37.2434 19.6789 37.9L19.7218 38.314L26.2035 38.2854C30.7864 38.2569 32.7423 38.1998 32.8708 38.0856C32.985 37.9999 33.0707 37.6573 33.0707 37.3148C33.0707 36.7438 33.0421 36.701 32.3854 36.3441C31.5716 35.9016 31.1576 35.4734 30.872 34.8025C30.6436 34.2601 30.0725 27.7082 28.7733 11.0501C28.7019 10.0223 28.602 9.10877 28.5734 9.00885C28.5021 8.82328 28.5734 8.82328 16.2953 8.9803ZM21.4778 16.717C21.9204 20.9707 22.2345 24.7534 22.1917 25.1531C22.1203 25.8811 21.7491 25.9667 18.6082 26.0095C17.0663 26.0238 15.7671 25.9952 15.71 25.9382C15.6529 25.8811 15.8099 25.4528 16.0383 25.0103C16.281 24.5535 17.309 22.6408 18.3084 20.7566C19.322 18.8581 20.3785 16.8312 20.6498 16.2174C20.921 15.6178 21.1923 15.1325 21.2351 15.1182C21.278 15.1182 21.3922 15.8462 21.4778 16.717ZM193.443 17.8161C196.284 18.801 197.997 20.5282 198.854 23.2546C199.282 24.6677 199.311 27.2086 198.911 28.8216C198.325 31.1625 197.069 33.2894 195.213 35.0451C193.857 36.3441 192.829 36.9865 191.287 37.5431C189.688 38.0998 188.232 38.2997 186.361 38.1998C183.763 38.0713 182.121 37.4004 180.751 35.9159C179.28 34.3314 178.695 32.6899 178.68 30.1776C178.666 26.8803 179.88 23.8969 182.392 21.1848C184.106 19.3149 186.847 17.8304 189.188 17.4878C190.188 17.345 192.629 17.5306 193.443 17.8161ZM174.697 17.8161C176.339 17.2879 177.638 17.6305 178.481 18.8153C178.866 19.372 178.909 19.529 178.909 20.5139C178.909 21.3133 178.823 21.7843 178.609 22.2697C177.952 23.6971 176.767 24.5535 175.411 24.5678C174.469 24.5678 174.041 24.2823 173.841 23.5115C173.627 22.6408 173.512 22.4695 173.041 22.4267C172.342 22.341 171.628 22.6551 171.014 23.3117C169.957 24.4536 169.729 25.1102 168.972 29.2212C168.001 34.4742 168.03 35.0023 169.401 35.4591C170.3 35.7589 170.471 35.9587 170.371 36.6153C170.206 37.595 170.335 37.6674 166.605 37.6716L164.097 37.6714C159.697 37.6678 159.734 37.6124 159.935 36.7438C160.049 36.287 160.235 36.0729 160.991 35.5305C162.076 34.7597 162.362 34.3172 162.633 33.0182C163.147 30.4916 164.275 24.1396 164.275 23.7114C164.275 23.0119 164.09 22.7693 163.204 22.2697C162.491 21.87 162.419 21.7843 162.419 21.3418C162.419 20.7138 162.662 20.5567 164.946 19.7717C165.946 19.4291 167.459 18.8867 168.315 18.5583C170.757 17.6305 171.085 17.7447 170.928 19.4719C170.871 20.0571 170.885 20.5425 170.942 20.5425C171.014 20.5425 171.442 20.1571 171.913 19.6717C172.941 18.6154 173.655 18.1444 174.697 17.8161ZM222.682 19.8859C223.21 21.1277 223.11 22.3553 222.039 27.8224C221.511 30.4488 221.054 33.0039 220.997 33.4893C220.897 34.5884 221.097 34.9595 222.068 35.4163C222.725 35.7446 222.739 35.7589 222.71 36.3727C222.659 37.4468 222.814 37.5243 218.844 37.5288L216.327 37.5285C212.669 37.5254 212.387 37.4964 212.374 37.2719C212.331 36.5154 212.46 36.2727 213.459 35.3164C214.258 34.5455 214.544 34.1601 214.715 33.6034C214.837 33.2327 215.245 31.2673 215.653 29.1771L215.868 28.067C216.245 26.1015 216.578 24.2554 216.628 23.7542C216.728 22.8121 216.414 22.0698 215.786 21.7272C214.787 21.1848 211.974 21.5131 210.789 22.2982C209.947 22.8692 209.761 23.4402 208.905 28.1792C207.677 34.8739 207.677 34.931 208.89 35.4734C209.59 35.7731 209.676 35.8588 209.676 36.2442C209.676 36.4869 209.576 36.8723 209.461 37.1006L209.233 37.5289H199.225C198.925 37.5289 198.682 37.286 198.682 36.9865C198.682 36.3013 198.825 36.13 199.996 35.402C201.623 34.3743 201.552 34.5884 203.251 25.5813C203.722 23.1404 203.722 23.1404 203.451 22.598C203.265 22.2126 202.937 21.8985 202.366 21.5702C201.723 21.1848 201.538 20.9992 201.538 20.7423C201.538 20.1713 201.98 19.9001 203.694 19.4005C204.593 19.1436 206.206 18.6154 207.291 18.23C209.39 17.502 209.875 17.4164 210.332 17.7447C210.561 17.916 210.604 18.1016 210.561 18.958C210.546 19.5433 210.575 19.9715 210.661 19.9715C210.732 19.9715 211.175 19.7288 211.632 19.4148C213.316 18.3014 215.072 17.5734 216.6 17.3593C219.541 16.9596 221.825 17.9017 222.682 19.8859ZM187.475 21.7415C186.019 23.5258 184.691 28.0793 184.691 31.3196C184.691 32.7898 184.919 33.7462 185.462 34.4456C185.876 35.0023 186.918 35.5305 187.575 35.5305C189.074 35.5305 190.816 34.1601 191.73 32.2474C193.129 29.3212 193.843 24.6535 193.214 22.5409C192.929 21.5702 192.258 20.728 191.487 20.3855C190.159 19.7859 188.674 20.2855 187.475 21.7415ZM48.2041 18.4156C47.1477 18.4584 46.2625 18.5155 46.2482 18.5298C46.134 18.5869 45.7771 19.4291 45.7771 19.6432C45.7771 19.7859 46.0769 20.1285 46.4624 20.3997C47.0049 20.8137 47.1477 20.9992 47.1762 21.3989C47.2333 22.1412 45.2774 32.4758 44.9918 32.904C44.4493 33.7319 42.3935 34.6455 41.4655 34.4742C40.5232 34.3029 39.9378 33.1752 40.1377 31.8905C40.2662 31.0198 41.0086 27.0373 41.7938 22.9263C42.4934 19.2435 42.5933 18.5441 42.3935 18.5441C41.4655 18.5155 36.597 18.5012 35.8546 18.5155C34.998 18.5441 34.7982 18.6012 34.4555 18.9009C34.17 19.1864 34.07 19.4005 34.07 19.8145C34.07 20.2998 34.1414 20.414 34.8267 20.9136C35.5691 21.4846 35.5691 21.4846 35.5691 22.2554C35.5548 22.6836 35.4549 23.5829 35.3264 24.2538C33.5132 33.7034 33.4561 34.2315 34.07 35.8445C34.4841 36.9579 34.9695 37.4575 36.1402 38.0427C37.1253 38.5281 37.3537 38.5852 38.6815 38.6423C40.8373 38.7279 42.0365 38.3568 43.9068 37.015C44.6349 36.5011 44.7777 36.5582 44.7777 37.3861C44.7777 38.3996 44.8776 38.4282 48.3041 38.1712C52.3873 37.8572 52.7727 37.8144 53.0726 37.5146C53.5865 37.0007 53.4295 36.444 52.4872 35.5447C51.7305 34.8025 51.6306 34.6597 51.6306 34.1601C51.6306 33.5178 52.5871 28.4219 53.558 23.8256C53.9149 22.1412 54.3147 20.2855 54.4289 19.7146C54.5574 19.1436 54.6145 18.5726 54.5716 18.4584C54.5145 18.3014 54.1005 18.2586 52.3159 18.2871C51.1166 18.3014 49.2606 18.3585 48.2041 18.4156Z" fill="white"/>
</g>
<defs>
<clipPath id="clip0_12862_77604">
<rect width="288" height="48" fill="white"/>
</clipPath>
</defs>
</svg>
