<svg width="150" height="48" viewBox="0 0 150 48" fill="none" xmlns="http://www.w3.org/2000/svg">
<g clip-path="url(#clip0_12862_77602)">
<g clip-path="url(#clip1_12862_77602)">
<path d="M0 7.48779H10.4388L20.206 24.0811H20.5182C20.0842 21.5794 19.6081 19 19.6081 16.4575V7.48779H30.008V37.4142H19.6081L10.0431 21.6967H9.725C10.0819 23.7631 10.3967 25.7057 10.3967 27.6931V37.4142H0V7.48779Z" fill="white"/>
<path d="M31.4297 37.4142L43.019 7.48779H52.2297L66.6672 46.5122H55.0954L48.4952 23.8013C48.058 22.3341 47.7399 20.8623 47.7399 19.3582H47.5048C47.5048 20.8623 47.1867 22.3341 46.7527 23.8013L42.7838 37.4142H31.4297Z" fill="white"/>
<path d="M70.6686 7.48779H81.8595L85.9916 23.2053H86.2657C86.4652 21.8968 86.6608 20.5087 87.0177 19.2377L90.392 7.48779H101.468L106.385 37.4142H95.8695L94.4062 21.0217H94.2041C94.0046 22.018 93.809 23.046 93.4929 24.0008L89.1638 37.4142H82.813L78.9212 24.7555C78.6064 23.4845 78.3266 22.2926 78.2495 21.0211H77.8893C77.8122 22.2162 77.7345 23.4457 77.6127 24.635L76.3463 37.4136H65.8271L70.6686 7.48779Z" fill="white"/>
<path d="M113.639 7.48779H124.827L128.95 23.2053H129.23C129.432 21.8968 129.629 20.5087 129.991 19.2377L133.363 7.48779H144.432L149.353 37.4142H138.84L137.371 21.0217H137.171C136.972 22.018 136.77 23.046 136.457 24.0008L132.132 37.4142H125.781L121.892 24.7555C121.574 23.4845 121.297 22.2926 121.214 21.0211H120.863C120.779 22.2162 120.7 23.4457 120.583 24.635L119.311 37.4136H108.795L113.639 7.48779Z" fill="white"/>
</g>
</g>
<defs>
<clipPath id="clip0_12862_77602">
<rect width="150" height="48" fill="white"/>
</clipPath>
<clipPath id="clip1_12862_77602">
<rect width="150" height="39.0244" fill="white" transform="translate(0 7.48779)"/>
</clipPath>
</defs>
</svg>
