<svg width="212" height="48" viewBox="0 0 212 48" fill="none" xmlns="http://www.w3.org/2000/svg">
<g clip-path="url(#clip0_12862_77605)">
<g clip-path="url(#clip1_12862_77605)">
<path d="M177.26 9.52619V38.5782H191.575C195.575 38.5782 197.891 37.9467 199.575 36.473C201.68 34.5783 202.733 31.21 202.733 24.0522C202.733 16.8945 201.68 13.5261 199.575 11.6314C197.891 10.1578 195.575 9.52619 191.575 9.52619H177.26ZM196.838 24.0522C196.838 30.3679 196.417 31.8415 195.154 32.6836C194.312 33.3152 193.259 33.5257 191.154 33.5257H183.154V14.3682H191.154C193.259 14.3682 194.312 14.3682 195.154 15.2103C196.417 16.2629 196.838 17.7365 196.838 24.0522ZM210.101 45H168.101V3H210.101V45ZM133.788 14.3682V9.52619H158.629V18.7892H153.364V14.3682H143.259V21.3154H151.259V25.9469H143.259V33.7362H153.577V28.6837H158.838V38.5782H133.789V33.7362H137.788V14.3682H133.788ZM111.262 30.9994C111.262 34.1573 111.471 36.473 111.892 38.3677H117.577C117.365 36.8941 117.156 34.1573 117.156 30.5784C116.944 26.368 115.681 25.7364 112.734 25.1048C116.102 24.4733 117.577 22.9996 117.577 17.7365C117.577 13.5261 116.944 11.8419 115.681 10.7893C114.839 9.94723 113.367 9.52619 111.05 9.52619H93.3657V38.5782H99.2603V27.21H107.472C109.157 27.21 109.786 27.4206 110.42 27.8416C111.053 28.2627 111.262 28.8942 111.262 30.9994ZM99.2603 22.5786V14.5787H108.736C109.999 14.5787 110.42 14.7892 110.629 14.9998C111.05 15.4208 111.471 16.0524 111.471 18.5786C111.471 21.1049 111.05 21.947 110.629 22.368C110.42 22.5786 109.999 22.7891 108.736 22.7891L99.2603 22.5786ZM125.998 45H83.8939V3H125.892V45H125.998ZM72.9467 33.7362V38.5782H52.9455V33.7362H60.1032V14.3682H52.9455V9.52619H72.9451V14.3682H65.7873V33.7362H72.9467ZM39.1571 9.52619H33.6835L29.6836 32.4731L25.0521 11.2104C24.8416 9.73671 24.21 9.52619 22.9469 9.52619H19.9996C18.7365 9.52619 18.1049 9.94723 17.8944 11.2104L13.2629 32.4731L9.26297 9.52619H3.36835L9.05245 37.1046C9.26297 38.3677 9.68402 38.5782 11.1577 38.5782H15.1576C16.4207 38.5782 16.8418 38.3677 17.2628 37.1046L21.6838 17.105L26.1047 37.1046C26.3153 38.3677 26.7363 38.5782 28.21 38.5782H31.9994C33.2625 38.5782 33.8941 38.3677 34.1046 37.1046L39.1571 9.52619ZM42.1044 45H0V3H42V45H42.1044Z" fill="white"/>
</g>
</g>
<defs>
<clipPath id="clip0_12862_77605">
<rect width="211.5" height="48" fill="white"/>
</clipPath>
<clipPath id="clip1_12862_77605">
<rect width="211.312" height="42" fill="white" transform="translate(0 3)"/>
</clipPath>
</defs>
</svg>
