<svg width="221" height="48" viewBox="0 0 221 48" fill="none" xmlns="http://www.w3.org/2000/svg">
<g clip-path="url(#clip0_12862_77601)">
<g clip-path="url(#clip1_12862_77601)">
<path d="M35.2085 34.9073C33.7442 33.443 32.9307 31.2628 32.9307 28.4318C32.9307 22.5094 37.1935 16.9125 43.4738 16.9125C45.9143 16.9125 47.9318 17.6284 49.3636 19.0602C50.8279 20.557 51.6414 22.7047 51.6414 25.5357C51.6414 31.4581 47.3786 37.055 41.0983 37.055C38.6578 37.055 36.6728 36.3391 35.2085 34.9073ZM45.0357 23.8111C45.0357 22.5745 44.7754 21.6959 44.3198 21.1427C44.092 20.8824 43.7992 20.7197 43.3761 20.7197C41.3912 20.7197 39.5364 25.2754 39.5364 30.1564C39.5364 31.393 39.7967 32.2716 40.2523 32.8247C40.4475 33.0851 40.7729 33.2478 41.1959 33.2478C43.1809 33.2478 45.0357 28.6921 45.0357 23.8111ZM66.8052 15.1228C66.9029 14.6021 66.7076 14.4394 66.2195 14.4394H64.9179L65.3409 11.9989L74.2245 7.96387H74.4522L70.222 31.9787C70.0267 33.2152 70.3522 33.6708 71.4585 33.6708H71.5561L71.0355 36.5018H61.4686L61.9893 33.6708H62.0869C63.1933 33.6708 63.6814 33.1176 63.9417 31.6858L66.8052 15.1228ZM75.8189 23.746C75.9166 23.2253 75.7213 23.0626 75.2332 23.0626H73.9316L74.3546 20.6221L83.2056 16.945H83.4334L80.7651 32.0112C80.5373 33.2478 80.8952 33.7033 82.0016 33.7033H82.0992L81.5786 36.5344H72.0117L72.5324 33.7033H72.63C73.7364 33.7033 74.2245 33.1502 74.4848 31.7184L75.8189 23.746ZM77.446 15.4807C76.8928 14.9275 76.6325 14.1791 76.6325 13.268C76.6325 10.925 78.7476 9.0377 81.3183 9.0377C82.4246 9.0377 83.2056 9.36311 83.7588 9.91629C84.312 10.4695 84.5723 11.2179 84.5723 12.129C84.5723 14.472 82.4572 16.3593 79.8865 16.3593C78.7801 16.3918 77.9991 16.0339 77.446 15.4807ZM82.5223 36.5344L83.0429 33.7033H83.1405C84.2469 33.7033 84.735 33.1502 84.9953 31.7184L86.3946 23.7785C86.4922 23.2579 86.297 23.0952 85.8088 23.0952H84.5072L84.9303 20.6546L93.3582 16.9776H93.586L93.0328 20.2641L93.586 19.8411C95.8313 18.149 97.621 16.9776 99.6711 16.9776C102.47 16.9776 103.869 19.1903 103.316 22.7372L101.656 32.0438C101.428 33.2803 101.786 33.7359 102.893 33.7359H102.99L102.47 36.5669H92.9027L93.4233 33.7359H93.5209C94.6273 33.7359 95.1154 33.1827 95.3757 31.7509L96.7424 24.1365C96.9702 22.965 96.5147 22.542 95.8964 22.542C95.4734 22.542 95.0503 22.8023 94.4646 23.2579L92.6749 24.6246L91.3733 32.0763C91.178 33.3129 91.5034 33.7684 92.6098 33.7684H92.7074L92.1868 36.5994H82.5223V36.5344Z" fill="white"/>
<path d="M125.444 22.3142C123.979 21.9888 123.068 22.2166 122.612 22.7047C121.181 24.1365 122.352 26.4143 119.489 29.3104C118.024 30.8073 115.584 31.7184 112.59 31.7184C111.907 31.7184 111.223 31.6208 110.605 31.5557C110.084 31.816 109.857 32.0764 109.857 32.5645C109.857 33.5407 110.963 33.5732 115.616 33.9962C117.959 34.1915 120.009 34.4193 121.116 35.5256C121.669 36.0788 122.059 36.8273 122.059 37.9011C122.059 42.5218 117.666 46.4918 108.913 46.4918C104.78 46.4918 101.884 45.6783 100.485 44.279C99.8342 43.6282 99.5088 42.9123 99.5088 42.0663C99.5088 39.7234 101.168 38.5194 104.618 37.3805C104.292 36.8598 104.064 36.2741 104.064 35.5256C104.064 32.9875 105.203 31.4256 107.481 30.2866C105.366 28.8874 104.195 26.577 104.683 23.6809C105.399 19.5808 109.076 16.9451 113.892 16.9451C116.723 16.9451 118.545 17.661 119.912 19.0277C120.302 19.4181 120.595 19.7761 120.79 20.1991C121.734 18.2467 123.654 17.2705 126.29 17.4983L125.444 22.3142ZM115.356 40.9599C115.356 40.4067 114.77 40.1464 112.948 39.9837C111.256 39.821 109.141 39.6583 107.416 39.1051C105.984 39.7559 105.041 40.244 105.041 41.2202C105.041 42.1964 106.472 42.7496 109.954 42.7496C113.469 42.7496 115.356 41.6432 115.356 40.9599ZM115.421 24.3643C115.877 21.8261 115.389 20.2317 114.054 20.2317C112.818 20.2317 111.744 21.8912 111.288 24.3643C110.865 26.8048 111.386 28.4969 112.72 28.4969C113.957 28.5295 114.965 26.8699 115.421 24.3643Z" fill="white"/>
<path d="M123.458 37.836C123.653 35.005 123.751 31.2629 123.718 28.5295H126.972C127.233 31.1002 128.111 33.2804 129.38 34.5494C130.747 35.9161 132.342 36.5344 134.457 36.5344C137.385 36.5344 139.37 34.6796 139.37 32.2716C139.37 30.547 138.524 29.6358 136.865 28.3668L132.634 25.1453C131.756 24.4619 130.942 23.7786 130.291 23.1603C128.599 21.4682 127.786 19.7436 127.786 17.1403C127.786 11.3807 132.439 7.54089 139.045 7.54089C143.405 7.54089 144.381 8.54965 148.384 8.41948C147.798 10.5346 146.985 14.2117 146.562 16.6197H143.275L143.405 15.9038C143.666 14.5371 143.308 13.3331 142.527 12.5196C141.811 11.8037 140.607 11.3481 139.142 11.3481C136.214 11.3481 134.457 12.7474 134.457 15.0577C134.457 16.7173 135.335 17.726 137.027 19.0277L141.258 22.2492C142.136 22.9325 142.917 23.6159 143.601 24.2667C145.455 26.1215 146.399 28.0414 146.399 30.4168C146.399 36.4368 141.485 40.4393 134.327 40.4393C128.534 40.4393 126.354 37.7059 123.458 37.836Z" fill="white"/>
<path d="M155.479 32.4668C156.325 32.4668 157.073 32.0438 158.537 30.8072L159.904 33.5732C158.082 35.3954 155.804 37.0875 152.713 37.0875C151.281 37.0875 150.077 36.6645 149.231 35.8185C148.189 34.7772 147.701 33.0525 148.124 30.6445L149.784 21.338H147.278L147.734 18.7673L157.366 12.7473H157.594L156.715 17.9212H162.605L160.392 21.338H156.064L154.535 30.0588C154.209 31.9136 154.6 32.4668 155.479 32.4668Z" fill="white"/>
<path d="M162.604 34.9073C161.14 33.443 160.327 31.2628 160.327 28.4318C160.327 22.5094 164.589 16.9125 170.87 16.9125C173.31 16.9125 175.328 17.6284 176.76 19.0602C178.224 20.557 179.037 22.7047 179.037 25.5357C179.037 31.4581 174.775 37.055 168.494 37.055C166.021 37.055 164.036 36.3391 162.604 34.9073ZM172.399 23.8111C172.399 22.5745 172.139 21.6959 171.683 21.1427C171.455 20.8824 171.163 20.7197 170.74 20.7197C168.755 20.7197 166.9 25.2754 166.9 30.1564C166.9 31.393 167.16 32.2716 167.616 32.8247C167.811 33.0851 168.136 33.2478 168.559 33.2478C170.544 33.2478 172.399 28.6921 172.399 23.8111ZM59.6791 31.9787L63.9094 7.96387H63.6816L54.7981 11.9989L54.375 14.4394H55.6767C56.1973 14.4394 56.36 14.6021 56.2624 15.1228L53.3338 31.7184C53.0734 33.1502 52.5853 33.7033 51.4789 33.7033H51.3813L50.8607 36.5344H51.1861C52.3575 36.5344 53.5941 37.3804 53.5941 38.9749C53.5941 40.5368 52.1623 42.0988 48.0947 42.0988C42.27 42.0988 37.0635 39.3328 33.0611 35.3629C30.1975 32.4993 27.8871 28.9199 26.553 25.3405C31.434 23.4206 34.0047 19.9387 34.0047 15.741C34.0047 13.7235 33.3214 12.0314 32.0198 10.6973C29.9372 8.61468 26.2601 7.5083 21.0537 7.5083C9.07878 7.5083 0 11.7386 0 17.2704C0 18.149 0.325404 18.9625 0.878591 19.5157C1.43178 20.0689 2.24529 20.3943 3.25404 20.3943C5.04377 20.3943 6.86603 19.2229 7.15889 17.4006C7.41922 16.1315 6.99619 15.0902 6.1176 14.537C7.38668 13.5934 9.1764 12.8775 11.3566 12.3894L7.54938 34.0613C7.15889 36.1764 6.67079 36.8923 4.13263 37.1201L3.61199 40.0813C5.82474 39.9186 8.00494 39.7884 10.2177 39.7884C12.6257 39.7884 14.871 39.9186 17.0837 40.0813L17.6044 37.1201C15.1964 36.9574 14.513 36.2415 14.9035 34.1264L16.1726 26.8373H18.8084C20.0774 30.612 22.1926 34.0613 24.7633 36.6645C30.5555 42.4567 38.5279 46.0036 48.7781 46.0036C57.0759 46.0036 60.1998 43.4655 60.1998 40.2765C60.1998 39.4305 59.8093 38.7146 59.2236 38.1288C58.5402 37.4455 57.6291 36.9574 56.718 36.5669C56.6203 36.5344 56.718 36.5344 56.718 36.5344H60.4276L60.9482 33.7033H60.8831C59.8093 33.6708 59.4514 33.2152 59.6791 31.9787ZM18.3528 22.8023C17.9298 22.8023 17.4091 22.8023 16.921 22.7698L18.906 11.5433C19.4917 11.5108 20.0774 11.5108 20.6957 11.5108C24.8283 11.5108 26.4879 13.0402 26.4879 15.9037C26.4554 19.5157 24.4379 22.8023 18.3528 22.8023ZM178.81 36.5344L179.33 33.7033H179.428C180.534 33.7033 181.022 33.1502 181.283 31.7184L182.682 23.7785C182.78 23.2579 182.584 23.0952 182.096 23.0952H180.795L181.218 20.6546L189.646 16.9776H189.873L189.32 20.2641L189.873 19.8411C192.119 18.149 193.908 16.9776 195.958 16.9776C198.757 16.9776 200.156 19.1903 199.603 22.7372L197.943 32.0438C197.716 33.2803 198.074 33.7359 199.18 33.7359H199.278L198.757 36.5669H189.19L189.711 33.7359H189.808C190.915 33.7359 191.403 33.1827 191.663 31.7509L193.03 24.1365C193.258 22.965 192.802 22.542 192.184 22.542C191.761 22.542 191.338 22.8023 190.752 23.2579L188.962 24.6246L187.661 32.0763C187.465 33.3129 187.791 33.7684 188.897 33.7684H188.995L188.474 36.5994H178.81V36.5344ZM218.021 32.4668C215.58 34.7121 212.424 37.0875 208.291 37.0875C205.948 37.0875 204.191 36.4693 202.955 35.2327C201.718 33.9962 201.035 32.1414 201.035 29.7334C201.035 22.4118 205.916 16.945 212.359 16.945C214.572 16.945 216.264 17.5958 217.468 18.7998C218.607 19.9387 219.29 21.5658 219.29 23.4856C219.29 24.1365 219.192 24.7873 219.03 25.5032L207.445 30.1239C207.738 31.393 208.747 32.1089 210.309 32.1089C212.033 32.1089 214.214 31.1326 216.199 29.5707L218.021 32.4668ZM207.64 26.3167L212.456 24.2992C212.652 23.5507 212.717 22.8999 212.717 22.3793C212.717 21.0777 212.261 20.4594 211.48 20.4594C209.788 20.4919 208.291 23.0626 207.64 26.3167Z" fill="white"/>
</g>
</g>
<defs>
<clipPath id="clip0_12862_77601">
<rect width="220.5" height="48" fill="white"/>
</clipPath>
<clipPath id="clip1_12862_77601">
<rect width="220.5" height="38.9834" fill="white" transform="translate(0 7.5083)"/>
</clipPath>
</defs>
</svg>
