<svg width="19" height="20" viewBox="0 0 19 20" fill="none" xmlns="http://www.w3.org/2000/svg">
<path fill-rule="evenodd" clip-rule="evenodd" d="M5.86571 1.25L10.333 7.20267C11.8316 5.42394 13.5033 3.43972 15.3482 1.25H17.607C15.2542 4.03817 13.1825 6.49318 11.392 8.61502L19 18.75H13.3095C13.3095 18.75 11.6553 16.5749 8.34683 12.2248C4.67484 16.575 2.83949 18.75 2.83949 18.75H0.604097C0.604097 18.75 2.82985 16.1082 7.28135 10.8247C5.3293 8.25721 2.90192 5.06557 0 1.25H5.86571ZM5.12389 3.04898H3.42472L13.8825 16.7961H15.546C8.59793 7.63136 5.12389 3.04898 5.12389 3.04898Z" fill="white"/>
</svg>
