<svg width="17" height="20" viewBox="0 0 17 20" fill="none" xmlns="http://www.w3.org/2000/svg">
<path d="M14.4609 4.25853C13.4108 3.58521 12.6528 2.50834 12.4165 1.2529C12.3654 0.981523 12.3374 0.702465 12.3374 0.416687H8.98579L8.98026 13.6227C8.92395 15.1015 7.68611 16.2884 6.16835 16.2884C5.69672 16.2884 5.25243 16.1726 4.86151 15.97C3.96479 15.506 3.35124 14.5818 3.35124 13.5183C3.35124 11.9909 4.61512 10.7482 6.16835 10.7482C6.45837 10.7482 6.73633 10.7953 6.99965 10.8762V7.51218C6.72722 7.4757 6.45055 7.45298 6.16835 7.45298C2.76731 7.4533 0 10.1741 0 13.5183C0 15.5703 1.04287 17.3861 2.63354 18.4841C3.63539 19.1756 4.85435 19.5834 6.16868 19.5834C9.57005 19.5834 12.3374 16.8625 12.3374 13.5183V6.8219C13.6517 7.74964 15.2622 8.29623 17 8.29623V5.00098C16.0639 5.00098 15.1919 4.72736 14.4609 4.25853Z" fill="white"/>
</svg>
