<svg width="40" height="40" viewBox="0 0 40 40" fill="none" xmlns="http://www.w3.org/2000/svg">
<path d="M10.4333 29.5667V32C9.76667 32 9.18889 31.7667 8.7 31.3C8.23333 30.8111 8 30.2333 8 29.5667H10.4333ZM8 26.6V24.1667H10.4333V26.6H8ZM8 21.2333V18.7667H10.4333V21.2333H8ZM8 15.8333V13.4H10.4333V15.8333H8ZM10.4333 10.4333H8C8 9.76667 8.23333 9.2 8.7 8.73333C9.18889 8.24444 9.76667 8 10.4333 8V10.4333ZM13.4 32V29.5667H15.8333V32H13.4ZM13.4 10.4333V8H15.8333V10.4333H13.4ZM18.7667 32V29.5667H21.2333V32H18.7667ZM18.7667 10.4333V8H21.2333V10.4333H18.7667ZM24.1667 32V29.5667H26.6V32H24.1667ZM24.1667 10.4333V8H26.6V10.4333H24.1667ZM29.5667 29.5667H32C32 30.2333 31.7556 30.8111 31.2667 31.3C30.8 31.7667 30.2333 32 29.5667 32V29.5667ZM29.5667 26.6V24.1667H32V26.6H29.5667ZM29.5667 21.2333V18.7667H32V21.2333H29.5667ZM29.5667 15.8333V13.4H32V15.8333H29.5667ZM29.5667 10.4333V8C30.2333 8 30.8 8.24444 31.2667 8.73333C31.7556 9.2 32 9.76667 32 10.4333H29.5667Z" fill="white"/>
</svg>
