<svg width="86" height="16" viewBox="0 0 86 16" fill="none" xmlns="http://www.w3.org/2000/svg">
<g clip-path="url(#clip0_4441_40404)">
<path d="M16 0H0V16H16V0Z" fill="#00B59C"/>
<path d="M33.334 0H17.334V16H33.334V0Z" fill="#00B59C"/>
<path d="M50.666 0H34.666V16H50.666V0Z" fill="#00B59C"/>
<path d="M68 0H52V16H68V0Z" fill="#00B59C"/>
<path d="M85.334 0H77.334V16H85.334V0Z" fill="#00B59C" fill-opacity="0.5"/>
<path d="M80.334 0H69.334V16H80.334V0Z" fill="#00B59C"/>
<path d="M8.00039 10.7833L10.4337 10.1667L11.4504 13.3L8.00039 10.7833ZM13.6004 6.73335H9.31706L8.00039 2.70001L6.68372 6.73335H2.40039L5.86706 9.23335L4.55039 13.2667L8.01706 10.7667L10.1504 9.23335L13.6004 6.73335Z" fill="white"/>
<path d="M25.3324 10.7833L27.7658 10.1667L28.7824 13.3L25.3324 10.7833ZM30.9324 6.73335H26.6491L25.3324 2.70001L24.0158 6.73335H19.7324L23.1991 9.23335L21.8824 13.2667L25.3491 10.7667L27.4824 9.23335L30.9324 6.73335Z" fill="white"/>
<path d="M42.6664 10.7833L45.0997 10.1667L46.1164 13.3L42.6664 10.7833ZM48.2664 6.73335H43.9831L42.6664 2.70001L41.3497 6.73335H37.0664L40.5331 9.23335L39.2164 13.2667L42.6831 10.7667L44.8164 9.23335L48.2664 6.73335Z" fill="white"/>
<path d="M60.0004 10.7833L62.4337 10.1667L63.4504 13.3L60.0004 10.7833ZM65.6004 6.73335H61.3171L60.0004 2.70001L58.6837 6.73335H54.4004L57.8671 9.23335L56.5504 13.2667L60.0171 10.7667L62.1504 9.23335L65.6004 6.73335Z" fill="white"/>
<path d="M77.3324 10.7833L79.7658 10.1667L80.7824 13.3L77.3324 10.7833ZM82.9324 6.73335H78.6491L77.3324 2.70001L76.0158 6.73335H71.7324L75.1991 9.23335L73.8824 13.2667L77.3491 10.7667L79.4824 9.23335L82.9324 6.73335Z" fill="white"/>
</g>
<defs>
<clipPath id="clip0_4441_40404">
<rect width="85.5" height="16" fill="white"/>
</clipPath>
</defs>
</svg>
