<svg width="89" height="22" viewBox="0 0 89 22" fill="none" xmlns="http://www.w3.org/2000/svg">
<g clip-path="url(#clip0_3717_22410)">
<mask id="mask0_3717_22410" style="mask-type:luminance" maskUnits="userSpaceOnUse" x="0" y="0" width="89" height="22">
<path d="M89 0H0V21.696H89V0Z" fill="white"/>
</mask>
<g mask="url(#mask0_3717_22410)">
<path d="M23.3892 7.68951H32.4008V9.35845H28.8574V18.7403H26.909V9.35845H23.3814V7.68951H23.3892ZM32.0158 10.7388H33.6814V12.283H33.7129C33.7679 12.0646 33.87 11.854 34.0193 11.6513C34.1685 11.4485 34.3492 11.2535 34.5614 11.0898C34.7734 10.9182 35.0092 10.7856 35.2686 10.6764C35.5276 10.5751 35.795 10.5205 36.062 10.5205C36.2663 10.5205 36.4156 10.5283 36.4942 10.536C36.5728 10.5438 36.6514 10.5594 36.7376 10.5673V12.2674C36.6119 12.244 36.4862 12.2284 36.3525 12.2128C36.2192 12.1972 36.0935 12.1894 35.9678 12.1894C35.6693 12.1894 35.3863 12.2518 35.1193 12.3687C34.852 12.4857 34.6242 12.6651 34.4278 12.8913C34.2314 13.1252 34.0743 13.406 33.9564 13.7491C33.8386 14.0923 33.7836 14.4822 33.7836 14.9267V18.7325H32.008V10.7388H32.0158ZM44.9007 18.7403H43.1567V17.6251H43.1252C42.9053 18.0306 42.5829 18.3504 42.151 18.5921C41.7188 18.8339 41.2787 18.9587 40.8309 18.9587C39.7702 18.9587 39.0004 18.7013 38.529 18.1788C38.0577 17.6563 37.8219 16.8686 37.8219 15.8158V10.7388H39.5974V15.6442C39.5974 16.3461 39.7311 16.8452 40.006 17.1338C40.273 17.4223 40.6581 17.5705 41.1454 17.5705C41.5225 17.5705 41.8286 17.5159 42.08 17.3989C42.3315 17.2819 42.5358 17.1338 42.685 16.9388C42.8423 16.7516 42.9524 16.5177 43.023 16.2525C43.0937 15.9874 43.1252 15.6988 43.1252 15.3869V10.7466H44.9007V18.7403ZM47.9256 16.1745C47.9804 16.6892 48.1771 17.048 48.5147 17.2586C48.8603 17.4613 49.2689 17.5705 49.7482 17.5705C49.9131 17.5705 50.1018 17.5549 50.3141 17.5315C50.526 17.5081 50.7304 17.4535 50.9111 17.3833C51.0995 17.3131 51.2488 17.204 51.3745 17.0636C51.4926 16.9232 51.5473 16.7438 51.5397 16.5177C51.5317 16.2915 51.4451 16.1043 51.2882 15.964C51.131 15.8158 50.9347 15.7066 50.6909 15.613C50.4474 15.5272 50.1725 15.4492 49.8584 15.3869C49.5439 15.3245 49.2298 15.2543 48.9078 15.1841C48.5777 15.1139 48.2553 15.0203 47.9492 14.9189C47.6427 14.8175 47.3677 14.6772 47.1243 14.4978C46.8805 14.3262 46.6841 14.1001 46.5429 13.8271C46.3936 13.5542 46.3226 13.2188 46.3226 12.8133C46.3226 12.3765 46.4327 12.0178 46.645 11.7215C46.8569 11.4251 47.1319 11.1912 47.454 11.0118C47.784 10.8324 48.1455 10.7076 48.5462 10.6296C48.9469 10.5594 49.332 10.5205 49.6932 10.5205C50.1098 10.5205 50.5105 10.5673 50.8876 10.6531C51.2647 10.7388 51.6103 10.8792 51.9168 11.0819C52.2229 11.2769 52.4743 11.5343 52.6787 11.8462C52.883 12.1582 53.0087 12.5403 53.0637 12.9848H51.2096C51.1231 12.5637 50.9347 12.2752 50.6282 12.1348C50.3217 11.9866 49.9681 11.9164 49.5754 11.9164C49.4497 11.9164 49.3005 11.9242 49.1277 11.9476C48.9549 11.971 48.7976 12.01 48.6404 12.0646C48.4911 12.1192 48.3654 12.205 48.2553 12.3142C48.1535 12.4233 48.0984 12.5637 48.0984 12.7431C48.0984 12.9614 48.1771 13.133 48.3263 13.2656C48.4756 13.3982 48.6719 13.5073 48.9154 13.6009C49.1588 13.6867 49.4341 13.7647 49.7482 13.8271C50.0627 13.8895 50.3847 13.9597 50.7148 14.0299C51.0368 14.1001 51.3509 14.1936 51.6654 14.295C51.9795 14.3964 52.2544 14.5368 52.4982 14.7162C52.7417 14.8955 52.938 15.1139 53.0873 15.3791C53.2365 15.6442 53.3152 15.9796 53.3152 16.3695C53.3152 16.8452 53.205 17.2429 52.9851 17.5783C52.7652 17.9058 52.4823 18.1788 52.1367 18.3815C51.7911 18.5843 51.398 18.7403 50.9738 18.8339C50.5496 18.9275 50.1254 18.9742 49.7091 18.9742C49.1983 18.9742 48.727 18.9197 48.2948 18.8027C47.8626 18.6857 47.4855 18.5141 47.1714 18.288C46.8569 18.054 46.6055 17.7654 46.4248 17.4223C46.2443 17.0792 46.1498 16.6658 46.1342 16.1901H47.9256V16.1745ZM53.7865 10.7388H55.1301V8.33683H56.9056V10.7388H58.5083V12.0568H56.9056V16.3305C56.9056 16.5177 56.9136 16.6736 56.9292 16.814C56.9448 16.9466 56.9842 17.0636 57.0393 17.1571C57.0944 17.2507 57.1806 17.3209 57.2983 17.3677C57.4164 17.4145 57.5657 17.4379 57.77 17.4379C57.8957 17.4379 58.0214 17.4379 58.1471 17.4301C58.2728 17.4223 58.3985 17.4067 58.5243 17.3755V18.7403C58.3276 18.7637 58.1312 18.7793 57.9504 18.8027C57.762 18.8261 57.5733 18.8339 57.377 18.8339C56.9056 18.8339 56.5285 18.7871 56.2456 18.7013C55.963 18.6155 55.7351 18.483 55.5779 18.3114C55.4127 18.1398 55.3109 17.9292 55.2479 17.6719C55.1928 17.4145 55.1537 17.1182 55.1457 16.7906V12.0724H53.8024V10.7388H53.7865ZM59.7654 10.7388H61.4467V11.8228H61.4782C61.7296 11.3549 62.0753 11.0274 62.523 10.8246C62.9708 10.6218 63.4501 10.5205 63.9765 10.5205C64.613 10.5205 65.1629 10.6296 65.6342 10.8558C66.1059 11.0742 66.4986 11.3783 66.813 11.7682C67.1271 12.1582 67.355 12.6105 67.5122 13.1252C67.6691 13.6399 67.7477 14.1936 67.7477 14.7786C67.7477 15.3167 67.6771 15.8392 67.5358 16.3383C67.3941 16.8452 67.1822 17.2897 66.8993 17.6797C66.6163 18.0696 66.2551 18.3737 65.815 18.6077C65.3752 18.8417 64.8644 18.9587 64.2674 18.9587C64.008 18.9587 63.7489 18.9353 63.4896 18.8885C63.2302 18.8417 62.9788 18.7637 62.7433 18.6623C62.5074 18.5609 62.2796 18.4283 62.0832 18.2646C61.8789 18.1008 61.7141 17.9136 61.5724 17.7031H61.5409V21.696H59.7654V10.7388ZM65.9722 14.7474C65.9722 14.3886 65.9251 14.0377 65.8309 13.6945C65.7364 13.3514 65.5951 13.055 65.4067 12.7899C65.218 12.5247 64.9821 12.3142 64.7072 12.1582C64.4246 12.0022 64.1022 11.9164 63.741 11.9164C62.9947 11.9164 62.4288 12.1738 62.0517 12.6885C61.6746 13.2032 61.4862 13.8895 61.4862 14.7474C61.4862 15.1529 61.5333 15.5272 61.6354 15.8704C61.7376 16.2135 61.8789 16.5099 62.0832 16.7594C62.2796 17.009 62.5154 17.204 62.7904 17.3443C63.0653 17.4925 63.3874 17.5627 63.7489 17.5627C64.1572 17.5627 64.4952 17.4769 64.7782 17.3131C65.0607 17.1493 65.2886 16.931 65.4694 16.6736C65.6501 16.4085 65.7835 16.1121 65.8621 15.7768C65.9331 15.4415 65.9722 15.0983 65.9722 14.7474ZM69.1069 7.68951H70.8824V9.35845H69.1069V7.68951ZM69.1069 10.7388H70.8824V18.7403H69.1069V10.7388ZM72.4696 7.68951H74.2454V18.7403H72.4696V7.68951ZM79.69 18.9587C79.0455 18.9587 78.472 18.8495 77.9692 18.6389C77.4664 18.4283 77.0421 18.132 76.6886 17.7654C76.343 17.3911 76.076 16.9466 75.8952 16.4319C75.7144 15.9172 75.6202 15.3479 75.6202 14.7317C75.6202 14.1234 75.7144 13.562 75.8952 13.0472C76.076 12.5325 76.343 12.088 76.6886 11.7137C77.0342 11.3393 77.4664 11.0508 77.9692 10.8402C78.472 10.6296 79.0455 10.5205 79.69 10.5205C80.3341 10.5205 80.9076 10.6296 81.4104 10.8402C81.9132 11.0508 82.3375 11.3471 82.691 11.7137C83.0367 12.088 83.304 12.5325 83.4848 13.0472C83.6652 13.562 83.7597 14.1234 83.7597 14.7317C83.7597 15.3479 83.6652 15.9172 83.4848 16.4319C83.304 16.9466 83.0367 17.3911 82.691 17.7654C82.3454 18.1398 81.9132 18.4283 81.4104 18.6389C80.9076 18.8495 80.3341 18.9587 79.69 18.9587ZM79.69 17.5627C80.0827 17.5627 80.4283 17.4769 80.7192 17.3131C81.0097 17.1493 81.2456 16.931 81.434 16.6658C81.6227 16.4007 81.756 16.0965 81.8506 15.7612C81.9368 15.4258 81.9839 15.0827 81.9839 14.7317C81.9839 14.3886 81.9368 14.0533 81.8506 13.7101C81.764 13.367 81.6227 13.0706 81.434 12.8055C81.2456 12.5403 81.0097 12.3298 80.7192 12.166C80.4283 12.0022 80.0827 11.9164 79.69 11.9164C79.2969 11.9164 78.9513 12.0022 78.6608 12.166C78.3699 12.3298 78.1344 12.5481 77.9456 12.8055C77.7573 13.0706 77.6236 13.367 77.5294 13.7101C77.4428 14.0533 77.3957 14.3886 77.3957 14.7317C77.3957 15.0827 77.4428 15.4258 77.5294 15.7612C77.6156 16.0965 77.7573 16.4007 77.9456 16.6658C78.1344 16.931 78.3699 17.1493 78.6608 17.3131C78.9513 17.4847 79.2969 17.5627 79.69 17.5627ZM84.2782 10.7388H85.6218V8.33683H87.3973V10.7388H89V12.0568H87.3973V16.3305C87.3973 16.5177 87.4053 16.6736 87.4209 16.814C87.4364 16.9466 87.4759 17.0636 87.531 17.1571C87.5857 17.2507 87.6723 17.3209 87.79 17.3677C87.9081 17.4145 88.0574 17.4379 88.2613 17.4379C88.387 17.4379 88.5127 17.4379 88.6385 17.4301C88.7642 17.4223 88.8899 17.4067 89.0156 17.3755V18.7403C88.8192 18.7637 88.6229 18.7793 88.4421 18.8027C88.2537 18.8261 88.065 18.8339 87.8686 18.8339C87.3973 18.8339 87.0202 18.7871 86.7373 18.7013C86.4543 18.6155 86.2265 18.483 86.0696 18.3114C85.9044 18.1398 85.8022 17.9292 85.7396 17.6719C85.6845 17.4145 85.6454 17.1182 85.6374 16.7906V12.0724H84.2937V10.7388H84.2782Z" fill="white"/>
<path d="M10.6615 15.3713L15.3047 14.178L17.2532 20.1206L10.6615 15.3713ZM21.3151 7.68952H13.1756L10.6615 0L8.14734 7.68952L0 7.68171L6.59171 12.4311L4.07759 20.1206L10.6615 15.3713L14.7312 12.4389L21.3151 7.68952Z" fill="white"/>
</g>
</g>
<defs>
<clipPath id="clip0_3717_22410">
<rect width="89" height="22" fill="white"/>
</clipPath>
</defs>
</svg>
