<svg width="75" height="14" viewBox="0 0 75 14" fill="none" xmlns="http://www.w3.org/2000/svg">
<g clip-path="url(#clip0_3717_22411)">
<path d="M14 0V14H0V0H14ZM7 9.43555L10.0186 11.6377L9.12891 8.89551L7 9.43555ZM5.84766 5.8916H2.09961L5.13379 8.0791L3.98145 11.6084L7.01465 9.4209L8.88086 8.0791L11.9004 5.8916H8.15234L7 2.3623L5.84766 5.8916Z" fill="white"/>
<path d="M29.167 0V14H15.167V0H29.167ZM22.167 9.43555L25.1855 11.6377L24.2959 8.89551L22.167 9.43555ZM21.0146 5.8916H17.2666L20.2998 8.0791L19.1475 11.6084L22.1816 9.4209L24.0479 8.0791L27.0664 5.8916H23.3184L22.167 2.3623L21.0146 5.8916Z" fill="white"/>
<path d="M44.333 0V14H30.333V0H44.333ZM37.333 9.43555L40.3525 11.6377L39.4629 8.89551L37.333 9.43555ZM36.1816 5.8916H32.4336L35.4668 8.0791L34.3145 11.6084L37.3477 9.4209L39.2148 8.0791L42.2334 5.8916H38.4854L37.333 2.3623L36.1816 5.8916Z" fill="white"/>
<path d="M59.5 0V14H45.5V0H59.5ZM52.5 9.43555L55.5186 11.6377L54.6289 8.89551L52.5 9.43555ZM51.3477 5.8916H47.5996L50.6338 8.0791L49.4814 11.6084L52.5146 9.4209L54.3809 8.0791L57.4004 5.8916H53.6523L52.5 2.3623L51.3477 5.8916Z" fill="white"/>
<path d="M70.292 0V5.8916H68.8184L67.667 2.3623L66.5146 5.8916H62.7666L65.7998 8.0791L64.6475 11.6084L67.6816 9.4209L69.5479 8.0791L70.292 7.53906V10.4238L69.7959 8.89551L67.667 9.43555L70.292 11.3496V14H60.667V0H70.292Z" fill="white"/>
<path d="M74.667 0V14H67.667V9.43066L67.6816 9.4209L69.5479 8.0791L72.5664 5.8916H68.8184L67.667 2.3623V0H74.667ZM67.667 9.43555L70.6855 11.6377L69.7959 8.89551L67.667 9.43555Z" fill="white" fill-opacity="0.5"/>
</g>
<defs>
<clipPath id="clip0_3717_22411">
<rect width="74.8125" height="14" fill="white"/>
</clipPath>
</defs>
</svg>
